<?xml version="1.0" encoding="UTF-8"?>
<svg width="653px" height="747px" viewBox="0 0 653 747" version="1.1" xmlns="http://www.w3.org/2000/svg" xmlns:xlink="http://www.w3.org/1999/xlink">
    <!-- Generator: Sketch 51.3 (57544) - http://www.bohemiancoding.com/sketch -->
    <title>flatlay</title>
    <desc>Created with Sketch.</desc>
    <defs>
        <filter x="-4.2%" y="-4.2%" width="111.7%" height="115.0%" filterUnits="objectBoundingBox" id="filter-1">
            <feOffset dx="8" dy="16" in="SourceAlpha" result="shadowOffsetOuter1"></feOffset>
            <feColorMatrix values="0 0 0 0 0   0 0 0 0 0   0 0 0 0 0  0 0 0 0.16 0" type="matrix" in="shadowOffsetOuter1" result="shadowMatrixOuter1"></feColorMatrix>
            <feMerge>
                <feMergeNode in="shadowMatrixOuter1"></feMergeNode>
                <feMergeNode in="SourceGraphic"></feMergeNode>
            </feMerge>
        </filter>
        <linearGradient x1="50%" y1="50%" x2="50%" y2="100%" id="linearGradient-2">
            <stop stop-color="#7B9B70" offset="0%"></stop>
            <stop stop-color="#3D5635" offset="100%"></stop>
        </linearGradient>
        <linearGradient x1="50%" y1="42.4239246%" x2="50%" y2="100%" id="linearGradient-3">
            <stop stop-color="#8AAB7E" offset="0%"></stop>
            <stop stop-color="#5D7655" offset="100%"></stop>
        </linearGradient>
        <linearGradient x1="50%" y1="11.99624%" x2="50%" y2="100%" id="linearGradient-4">
            <stop stop-color="#AFC6A3" offset="0%"></stop>
            <stop stop-color="#8AAB7E" offset="100%"></stop>
        </linearGradient>
    </defs>
    <g id="Page-1" stroke="none" stroke-width="1" fill="none" fill-rule="evenodd">
        <g id="flatlay" transform="translate(2.000000, 0.000000)">
            <g id="notebook" transform="translate(165.573962, 238.406857) rotate(-4.000000) translate(-165.573962, -238.406857) translate(15.573962, 9.906857)">
                <path d="M8.28571429,7.4047619 L281.238095,7.4047619 C286.21819,7.40475789 290.993965,9.38472093 294.51319,12.9084118 C298.032415,16.4321028 300.00632,21.2103857 300,26.1904762 L300,437.404762 C299.960837,447.710962 291.615723,456.056075 281.309524,456.095238 L8.28571429,456.095238 L8.28571429,7.4047619 Z" id="Shape" fill-opacity="0.16" fill="#000000" fill-rule="nonzero"></path>
                <path d="M0,0 L272.952381,0 C277.932475,-4.01010119e-06 282.708251,1.97995902 286.227476,5.50364994 C289.746701,9.02734086 291.720606,13.8056238 291.714286,18.7857143 L291.714286,430 C291.675123,440.3062 283.330009,448.651314 273.02381,448.690476 L0,448.690476 L0,0 Z" id="Shape" stroke="#D39359" stroke-width="3" fill="#FFB96E" fill-rule="nonzero"></path>
                <path d="M67.808,84.512 L73.82,84.512 L85.664,103.592 L85.736,103.592 L85.736,84.512 L90.272,84.512 L90.272,110 L84.512,110 L72.416,90.308 L72.344,90.308 L72.344,110 L67.808,110 L67.808,84.512 Z M102.664,97.184 C102.664,95.1439898 103.005997,93.3020082 103.69,91.658 C104.374003,90.0139918 105.321994,88.6160058 106.534,87.464 C107.746006,86.3119942 109.185992,85.4240031 110.854,84.8 C112.522008,84.1759969 114.33999,83.864 116.308,83.864 C118.30001,83.864 120.135992,84.1759969 121.816,84.8 C123.496008,85.4240031 124.947994,86.3119942 126.172,87.464 C127.396006,88.6160058 128.349997,90.0139918 129.034,91.658 C129.718003,93.3020082 130.06,95.1439898 130.06,97.184 C130.06,99.17601 129.718003,100.993992 129.034,102.638 C128.349997,104.282008 127.396006,105.697994 126.172,106.886 C124.947994,108.074006 123.496008,108.997997 121.816,109.658 C120.135992,110.318003 118.30001,110.648 116.308,110.648 C114.33999,110.648 112.522008,110.318003 110.854,109.658 C109.185992,108.997997 107.746006,108.074006 106.534,106.886 C105.321994,105.697994 104.374003,104.282008 103.69,102.638 C103.005997,100.993992 102.664,99.17601 102.664,97.184 Z M107.596,97.184 C107.596,98.5520068 107.805998,99.8059943 108.226,100.946 C108.646002,102.086006 109.245996,103.075996 110.026,103.916 C110.806004,104.756004 111.729995,105.409998 112.798,105.878 C113.866005,106.346002 115.047994,106.58 116.344,106.58 C117.640006,106.58 118.827995,106.346002 119.908,105.878 C120.988005,105.409998 121.917996,104.756004 122.698,103.916 C123.478004,103.075996 124.077998,102.086006 124.498,100.946 C124.918002,99.8059943 125.128,98.5520068 125.128,97.184 C125.128,95.8639934 124.918002,94.6400056 124.498,93.512 C124.077998,92.3839944 123.484004,91.4000042 122.716,90.56 C121.947996,89.7199958 121.024005,89.0600024 119.944,88.58 C118.863995,88.0999976 117.664007,87.86 116.344,87.86 C115.023993,87.86 113.830005,88.0999976 112.762,88.58 C111.693995,89.0600024 110.776004,89.7199958 110.008,90.56 C109.239996,91.4000042 108.646002,92.3839944 108.226,93.512 C107.805998,94.6400056 107.596,95.8639934 107.596,97.184 Z M146.52,88.472 L138.708,88.472 L138.708,84.512 L158.868,84.512 L158.868,88.472 L151.056,88.472 L151.056,110 L146.52,110 L146.52,88.472 Z M169.82,84.512 L186.704,84.512 L186.704,88.472 L174.356,88.472 L174.356,94.952 L186.056,94.952 L186.056,98.768 L174.356,98.768 L174.356,105.968 L187.352,105.968 L187.352,110 L169.82,110 L169.82,84.512 Z M212.776,89.84 C212.295998,89.2159969 211.618004,88.6940021 210.742,88.274 C209.865996,87.8539979 208.984004,87.644 208.096,87.644 C207.567997,87.644 207.040003,87.7099993 206.512,87.842 C205.983997,87.9740007 205.504002,88.1779986 205.072,88.454 C204.639998,88.7300014 204.286001,89.0899978 204.01,89.534 C203.733999,89.9780022 203.596,90.5119969 203.596,91.136 C203.596,91.7120029 203.715999,92.203998 203.956,92.612 C204.196001,93.020002 204.525998,93.3679986 204.946,93.656 C205.366002,93.9440014 205.875997,94.1959989 206.476,94.412 C207.076003,94.6280011 207.735996,94.8439989 208.456,95.06 C209.272004,95.3240013 210.117996,95.6239983 210.994,95.96 C211.870004,96.2960017 212.673996,96.7399972 213.406,97.292 C214.138004,97.8440028 214.737998,98.5399958 215.206,99.38 C215.674002,100.220004 215.908,101.263994 215.908,102.512 C215.908,103.880007 215.656003,105.073995 215.152,106.094 C214.647997,107.114005 213.976004,107.959997 213.136,108.632 C212.295996,109.304003 211.312006,109.807998 210.184,110.144 C209.055994,110.480002 207.868006,110.648 206.62,110.648 C204.963992,110.648 203.344008,110.342003 201.76,109.73 C200.175992,109.117997 198.880005,108.212006 197.872,107.012 L201.112,103.988 C201.736003,104.852004 202.569995,105.535997 203.614,106.04 C204.658005,106.544003 205.683995,106.796 206.692,106.796 C207.220003,106.796 207.759997,106.730001 208.312,106.598 C208.864003,106.465999 209.361998,106.244002 209.806,105.932 C210.250002,105.619998 210.609999,105.230002 210.886,104.762 C211.162001,104.293998 211.3,103.712003 211.3,103.016 C211.3,102.343997 211.144002,101.786002 210.832,101.342 C210.519998,100.897998 210.100003,100.514002 209.572,100.19 C209.043997,99.8659984 208.420004,99.5840012 207.7,99.344 L205.432,98.588 C204.663996,98.3479988 203.896004,98.0600017 203.128,97.724 C202.359996,97.3879983 201.670003,96.9440028 201.058,96.392 C200.445997,95.8399972 199.948002,95.162004 199.564,94.358 C199.179998,93.553996 198.988,92.552006 198.988,91.352 C198.988,90.0559935 199.257997,88.9400047 199.798,88.004 C200.338003,87.0679953 201.045996,86.2940031 201.922,85.682 C202.798004,85.0699969 203.793994,84.6140015 204.91,84.314 C206.026006,84.0139985 207.159994,83.864 208.312,83.864 C209.608006,83.864 210.921993,84.0919977 212.254,84.548 C213.586007,85.0040023 214.743995,85.6879954 215.728,86.6 L212.776,89.84 Z" id="NOTES" fill="#D39053"></path>
            </g>
            <g id="glasses" transform="translate(351.000000, 336.000000)" fill-rule="nonzero">
                <path d="M185.113861,169.692412 C222.244663,221.877166 237.668758,257.100363 246.061644,280.60274 C247.109589,283.520548 234.041096,283.60274 234.041096,283.60274 C234.041096,283.60274 223.520548,231.041096 176.958904,169.458904 C171.95423,162.821723 165.307055,154.687053 157.638951,145.670386 C148.753146,138.110403 140.735086,131.552562 134.178082,126.59589 C72.6164384,80.1369863 20.0547945,69.5547945 20.0547945,69.5547945 C20.0547945,69.5547945 20.1369863,56.4863014 23.0547945,57.5342466 C46.5128878,65.9039475 81.6654891,81.2916327 133.727843,118.307839 C92.3514155,71.9350041 41.8767123,19.2534247 41.8767123,19.2534247 C41.8767123,19.2534247 47.5273973,9.8630137 49.3150685,11.7534247 C98.6046928,62.0685991 135.431764,104.486021 163.156931,140.205804 C198.933141,167.954499 241.439166,204.844062 291.883562,254.260274 C293.835616,256.109589 284.363014,261.760274 284.363014,261.760274 C284.363014,261.760274 231.531697,211.132377 185.113872,169.692428 Z M165.226027,168.267123 C178.767123,149.363014 156.472603,127.171233 136.458904,141.041096 C110.671233,159.041096 86.609589,182.506849 63.2260274,159.143836 C34.4589041,130.376712 22.8082192,120.513699 10.5616438,106.479452 C-3.69863014,90.0410959 -9.82191781,64.1712329 41.5479452,12.8013699 C64.8082192,-10.3767123 137.506849,76.0273973 150.842466,106.438356 C155.424658,116.938356 171.390411,144.534247 194.383562,153.164384 C225.390411,164.794521 318.452055,243.020548 295.068493,266.321918 C275.116438,286.273973 227.075342,322.993151 198.349315,294.267123 C169.623288,265.541096 157.931507,255.636986 145.684932,241.60274 C132.80137,226.726027 132.80137,213.575342 165.226027,168.267123 Z M17.2808219,103.869863 C28.5616438,116.609589 39.1849315,125.650685 65.3424658,151.808219 C91.5,177.965753 123.390411,143.157534 140.89726,125.650685 C162.678082,103.869863 65.3424658,0.698630137 43.5410959,22.5 C-1.52054795,67.5616438 4.35616438,88.9931507 17.3835616,103.869863 L17.2808219,103.869863 Z M180.020548,164.89726 C134.958904,209.958904 139.39726,224.136986 152.40411,238.993151 C163.582192,251.753425 174.205479,260.794521 200.342466,286.931507 C226.479452,313.068493 268.561644,282.636986 286.068493,265.130137 C307.972603,243.349315 201.90411,143.09589 180.123288,164.89726 L180.020548,164.89726 Z" id="Shape" fill-opacity="0.16" fill="#000000"></path>
                <path d="M50.8356164,7.39726027 C195.020548,154.582192 232.561644,234.246575 247.582192,276.246575 C248.630137,279.164384 235.561644,279.246575 235.561644,279.246575 C235.561644,279.246575 225.041096,226.684932 178.479452,165.10274 C145.767123,121.808219 43.3150685,14.8972603 43.3150685,14.8972603 C43.3150685,14.8972603 48.9657534,5.50684932 50.8356164,7.39726027 Z" id="Shape" stroke="#101010" fill="#303030"></path>
                <path d="M293.342466,249.90411 C146.157534,105.719178 66.5547945,68.1780822 24.4931507,53.1575342 C21.5753425,52.109589 21.4931507,65.1780822 21.4931507,65.1780822 C21.4931507,65.1780822 73.9726027,75.6780822 135.616438,122.239726 C178.890411,154.952055 285.80137,257.40411 285.80137,257.40411 C285.80137,257.40411 295.232877,251.753425 293.342466,249.90411 Z" id="Shape" stroke="#101010" fill="#303030"></path>
                <polygon id="Shape" fill="#FFFFFF" opacity="0.5" points="50.8150685 5.91780822 10.1506849 53.8356164 3.45205479 82.5 75.2054795 154.253425 97.869863 154.479452 148.027397 119.589041 144.59589 94.6849315 112.952055 52.7465753 82.7671233 23.3424658"></polygon>
                <polygon id="Shape" fill="#FFFFFF" opacity="0.5" points="186.554795 146.219178 149.321918 190.972603 141.965753 221.013699 216.123288 295.171233 239.815068 295.150685 292.643836 258.082192 289.335616 232.089041 255.308219 190.068493 221.219178 162.616438"></polygon>
                <polygon id="Shape" fill="#FFFFFF" opacity="0.5" points="93.2876712 34.9726027 128.691781 72.6164384 40.6849315 119.753425 3.45205479 82.5"></polygon>
                <polygon id="Shape" fill="#FFFFFF" opacity="0.5" points="233.732877 173.527397 269.116438 211.150685 181.130137 258.287671 143.876712 221.034247"></polygon>
                <path d="M165.226027,160.39726 C178.767123,141.493151 156.472603,119.30137 136.458904,133.171233 C110.732877,151.191781 86.6712329,174.657534 63.2876712,151.273973 C34.5205479,122.506849 22.869863,112.643836 10.6232877,98.609589 C-3.6369863,82.1917808 -9.76027397,56.3013699 41.609589,4.93150685 C64.8082192,-18.2465753 137.506849,68.0753425 150.842466,98.630137 C155.424658,109.130137 171.390411,136.726027 194.383562,145.356164 C225.390411,156.986301 318.452055,235.212329 295.068493,258.513699 C275.116438,278.465753 227.075342,315.184932 198.349315,286.458904 C169.623288,257.732877 157.931507,247.828767 145.684932,233.794521 C132.80137,218.856164 132.80137,205.705479 165.226027,160.39726 Z M17.2808219,96 C28.5616438,108.739726 39.1849315,117.80137 65.3424658,143.938356 C91.5,170.075342 123.390411,135.287671 140.89726,117.780822 C162.678082,96 65.3424658,-7.17123288 43.5410959,14.630137 C-1.52054795,59.6917808 4.35616438,81.1232877 17.3835616,96 L17.2808219,96 Z M180.020548,157.027397 C134.958904,202.089041 139.39726,216.267123 152.40411,231.123288 C163.582192,243.883562 174.205479,252.924658 200.342466,279.061644 C226.479452,305.19863 268.561644,274.767123 286.068493,257.260274 C307.972603,235.479452 201.90411,135.226027 180.123288,157.027397 L180.020548,157.027397 Z" id="Shape" stroke="#101010" fill="#303030"></path>
            </g>
            <g id="succulent" filter="url(#filter-1)" transform="translate(149.000000, 489.000000)">
                <circle id="Oval" stroke="#8C7B75" stroke-width="3.15" fill="#D7CCC8" cx="120" cy="120" r="120"></circle>
                <circle id="Oval" stroke="#725B53" stroke-width="3" fill="#A1887F" cx="119.02439" cy="120.325203" r="102.764228"></circle>
                <g id="leaf" transform="translate(81.951220, 9.756098)" stroke-width="3">
                    <path d="M62.8389788,19.5852937 C51.7597077,12.3389127 42.9543028,10.7535709 36.4227642,0 C29.8912257,10.7535709 21.0858208,12.3389127 10.0065496,19.5852937 C-6.61235718,30.4548652 -5.52851543,74.1463415 36.4227642,74.1463415 C78.3740439,74.1463415 79.4578856,30.4548652 62.8389788,19.5852937 Z" id="Path" stroke="#AFC5B9" fill="url(#linearGradient-2)" transform="translate(36.422764, 37.073171) scale(-1, 1) translate(-36.422764, -37.073171) "></path>
                    <path d="M12.0867575,29.0444097 C12.6694411,27.6864832 14.477892,26.3032788 17.5121102,24.8947965" id="Path-2" stroke="#FFFFFF" opacity="0.48"></path>
                    <path d="M5.32648192,40.9283085 C6.24784484,38.7811001 9.10744076,36.5939212 13.9052697,34.366772" id="Path-2" stroke="#FFFFFF" opacity="0.16" transform="translate(9.615876, 37.647540) rotate(-45.000000) translate(-9.615876, -37.647540) "></path>
                    <path d="M21.2713265,24.5636793 C22.9682139,23.0858301 25.3651074,20.5952163 28.462007,17.0918379" id="Path-2" stroke="#FFFFFF" opacity="0.16" transform="translate(24.866667, 20.827759) rotate(20.000000) translate(-24.866667, -20.827759) "></path>
                </g>
                <g id="leaf-3" transform="translate(44.878049, 119.674797) rotate(-90.000000) translate(-44.878049, -119.674797) translate(8.455285, 82.601626)" stroke-width="3">
                    <path d="M62.8389788,19.5852937 C51.7597077,12.3389127 42.9543028,10.7535709 36.4227642,0 C29.8912257,10.7535709 21.0858208,12.3389127 10.0065496,19.5852937 C-6.61235718,30.4548652 -5.52851543,74.1463415 36.4227642,74.1463415 C78.3740439,74.1463415 79.4578856,30.4548652 62.8389788,19.5852937 Z" id="Path" stroke="#AFC5B9" fill="url(#linearGradient-2)" transform="translate(36.422764, 37.073171) scale(-1, 1) translate(-36.422764, -37.073171) "></path>
                    <path d="M12.0867575,29.0444097 C12.6694411,27.6864832 14.477892,26.3032788 17.5121102,24.8947965" id="Path-2" stroke="#FFFFFF" opacity="0.48"></path>
                    <path d="M5.32648192,40.9283085 C6.24784484,38.7811001 9.10744076,36.5939212 13.9052697,34.366772" id="Path-2" stroke="#FFFFFF" opacity="0.16" transform="translate(9.615876, 37.647540) rotate(-45.000000) translate(-9.615876, -37.647540) "></path>
                    <path d="M21.2713265,24.5636793 C22.9682139,23.0858301 25.3651074,20.5952163 28.462007,17.0918379" id="Path-2" stroke="#FFFFFF" opacity="0.16" transform="translate(24.866667, 20.827759) rotate(20.000000) translate(-24.866667, -20.827759) "></path>
                </g>
                <g id="leaf-2" transform="translate(66.991870, 72.195122) rotate(-45.000000) translate(-66.991870, -72.195122) translate(30.569106, 35.121951)" stroke-width="3">
                    <path d="M62.8389788,19.5852937 C51.7597077,12.3389127 42.9543028,10.7535709 36.4227642,0 C29.8912257,10.7535709 21.0858208,12.3389127 10.0065496,19.5852937 C-6.61235718,30.4548652 -5.52851543,74.1463415 36.4227642,74.1463415 C78.3740439,74.1463415 79.4578856,30.4548652 62.8389788,19.5852937 Z" id="Path" stroke="#AFC5B9" fill="url(#linearGradient-2)" transform="translate(36.422764, 37.073171) scale(-1, 1) translate(-36.422764, -37.073171) "></path>
                    <path d="M12.0867575,29.0444097 C12.6694411,27.6864832 14.477892,26.3032788 17.5121102,24.8947965" id="Path-2" stroke="#FFFFFF" opacity="0.48"></path>
                    <path d="M5.32648192,40.9283085 C6.24784484,38.7811001 9.10744076,36.5939212 13.9052697,34.366772" id="Path-2" stroke="#FFFFFF" opacity="0.16" transform="translate(9.615876, 37.647540) rotate(-45.000000) translate(-9.615876, -37.647540) "></path>
                    <path d="M21.2713265,24.5636793 C22.9682139,23.0858301 25.3651074,20.5952163 28.462007,17.0918379" id="Path-2" stroke="#FFFFFF" opacity="0.16" transform="translate(24.866667, 20.827759) rotate(20.000000) translate(-24.866667, -20.827759) "></path>
                </g>
                <g id="leaf-5" transform="translate(118.373984, 193.170732) rotate(-180.000000) translate(-118.373984, -193.170732) translate(81.951220, 156.097561)" stroke-width="3">
                    <path d="M62.8389788,19.5852937 C51.7597077,12.3389127 42.9543028,10.7535709 36.4227642,0 C29.8912257,10.7535709 21.0858208,12.3389127 10.0065496,19.5852937 C-6.61235718,30.4548652 -5.52851543,74.1463415 36.4227642,74.1463415 C78.3740439,74.1463415 79.4578856,30.4548652 62.8389788,19.5852937 Z" id="Path" stroke="#AFC5B9" fill="url(#linearGradient-2)" transform="translate(36.422764, 37.073171) scale(-1, 1) translate(-36.422764, -37.073171) "></path>
                    <path d="M12.0867575,29.0444097 C12.6694411,27.6864832 14.477892,26.3032788 17.5121102,24.8947965" id="Path-2" stroke="#FFFFFF" opacity="0.48"></path>
                    <path d="M5.32648192,40.9283085 C6.24784484,38.7811001 9.10744076,36.5939212 13.9052697,34.366772" id="Path-2" stroke="#FFFFFF" opacity="0.16" transform="translate(9.615876, 37.647540) rotate(-45.000000) translate(-9.615876, -37.647540) "></path>
                    <path d="M21.2713265,24.5636793 C22.9682139,23.0858301 25.3651074,20.5952163 28.462007,17.0918379" id="Path-2" stroke="#FFFFFF" opacity="0.16" transform="translate(24.866667, 20.827759) rotate(20.000000) translate(-24.866667, -20.827759) "></path>
                </g>
                <g id="leaf-7" transform="translate(191.869919, 123.577236) rotate(-270.000000) translate(-191.869919, -123.577236) translate(155.447154, 86.504065)" stroke-width="3">
                    <path d="M62.8389788,19.5852937 C51.7597077,12.3389127 42.9543028,10.7535709 36.4227642,0 C29.8912257,10.7535709 21.0858208,12.3389127 10.0065496,19.5852937 C-6.61235718,30.4548652 -5.52851543,74.1463415 36.4227642,74.1463415 C78.3740439,74.1463415 79.4578856,30.4548652 62.8389788,19.5852937 Z" id="Path" stroke="#AFC5B9" fill="url(#linearGradient-2)" transform="translate(36.422764, 37.073171) scale(-1, 1) translate(-36.422764, -37.073171) "></path>
                    <path d="M12.0867575,29.0444097 C12.6694411,27.6864832 14.477892,26.3032788 17.5121102,24.8947965" id="Path-2" stroke="#FFFFFF" opacity="0.48"></path>
                    <path d="M5.32648192,40.9283085 C6.24784484,38.7811001 9.10744076,36.5939212 13.9052697,34.366772" id="Path-2" stroke="#FFFFFF" opacity="0.16" transform="translate(9.615876, 37.647540) rotate(-45.000000) translate(-9.615876, -37.647540) "></path>
                    <path d="M21.2713265,24.5636793 C22.9682139,23.0858301 25.3651074,20.5952163 28.462007,17.0918379" id="Path-2" stroke="#FFFFFF" opacity="0.16" transform="translate(24.866667, 20.827759) rotate(20.000000) translate(-24.866667, -20.827759) "></path>
                </g>
                <g id="leaf-8" transform="translate(170.406504, 72.195122) rotate(-315.000000) translate(-170.406504, -72.195122) translate(133.983740, 35.121951)" stroke-width="3">
                    <path d="M62.8389788,19.5852937 C51.7597077,12.3389127 42.9543028,10.7535709 36.4227642,0 C29.8912257,10.7535709 21.0858208,12.3389127 10.0065496,19.5852937 C-6.61235718,30.4548652 -5.52851543,74.1463415 36.4227642,74.1463415 C78.3740439,74.1463415 79.4578856,30.4548652 62.8389788,19.5852937 Z" id="Path" stroke="#AFC5B9" fill="url(#linearGradient-2)" transform="translate(36.422764, 37.073171) scale(-1, 1) translate(-36.422764, -37.073171) "></path>
                    <path d="M12.0867575,29.0444097 C12.6694411,27.6864832 14.477892,26.3032788 17.5121102,24.8947965" id="Path-2" stroke="#FFFFFF" opacity="0.48"></path>
                    <path d="M5.32648192,40.9283085 C6.24784484,38.7811001 9.10744076,36.5939212 13.9052697,34.366772" id="Path-2" stroke="#FFFFFF" opacity="0.16" transform="translate(9.615876, 37.647540) rotate(-45.000000) translate(-9.615876, -37.647540) "></path>
                    <path d="M21.2713265,24.5636793 C22.9682139,23.0858301 25.3651074,20.5952163 28.462007,17.0918379" id="Path-2" stroke="#FFFFFF" opacity="0.16" transform="translate(24.866667, 20.827759) rotate(20.000000) translate(-24.866667, -20.827759) "></path>
                </g>
                <g id="leaf-6" transform="translate(171.056911, 168.455285) rotate(-255.000000) translate(-171.056911, -168.455285) translate(134.634146, 131.382114)" stroke-width="3">
                    <path d="M62.8389788,19.5852937 C51.7597077,12.3389127 42.9543028,10.7535709 36.4227642,0 C29.8912257,10.7535709 21.0858208,12.3389127 10.0065496,19.5852937 C-6.61235718,30.4548652 -5.52851543,74.1463415 36.4227642,74.1463415 C78.3740439,74.1463415 79.4578856,30.4548652 62.8389788,19.5852937 Z" id="Path" stroke="#AFC5B9" fill="url(#linearGradient-2)" transform="translate(36.422764, 37.073171) scale(-1, 1) translate(-36.422764, -37.073171) "></path>
                    <path d="M12.0867575,29.0444097 C12.6694411,27.6864832 14.477892,26.3032788 17.5121102,24.8947965" id="Path-2" stroke="#FFFFFF" opacity="0.48"></path>
                    <path d="M5.32648192,40.9283085 C6.24784484,38.7811001 9.10744076,36.5939212 13.9052697,34.366772" id="Path-2" stroke="#FFFFFF" opacity="0.16" transform="translate(9.615876, 37.647540) rotate(-45.000000) translate(-9.615876, -37.647540) "></path>
                    <path d="M21.2713265,24.5636793 C22.9682139,23.0858301 25.3651074,20.5952163 28.462007,17.0918379" id="Path-2" stroke="#FFFFFF" opacity="0.16" transform="translate(24.866667, 20.827759) rotate(20.000000) translate(-24.866667, -20.827759) "></path>
                </g>
                <g id="leaf-4" transform="translate(66.991870, 168.455285) rotate(-105.000000) translate(-66.991870, -168.455285) translate(30.569106, 131.382114)" stroke-width="3">
                    <path d="M62.8389788,19.5852937 C51.7597077,12.3389127 42.9543028,10.7535709 36.4227642,0 C29.8912257,10.7535709 21.0858208,12.3389127 10.0065496,19.5852937 C-6.61235718,30.4548652 -5.52851543,74.1463415 36.4227642,74.1463415 C78.3740439,74.1463415 79.4578856,30.4548652 62.8389788,19.5852937 Z" id="Path" stroke="#AFC5B9" fill="url(#linearGradient-2)" transform="translate(36.422764, 37.073171) scale(-1, 1) translate(-36.422764, -37.073171) "></path>
                    <path d="M12.0867575,29.0444097 C12.6694411,27.6864832 14.477892,26.3032788 17.5121102,24.8947965" id="Path-2" stroke="#FFFFFF" opacity="0.48"></path>
                    <path d="M5.32648192,40.9283085 C6.24784484,38.7811001 9.10744076,36.5939212 13.9052697,34.366772" id="Path-2" stroke="#FFFFFF" opacity="0.16" transform="translate(9.615876, 37.647540) rotate(-45.000000) translate(-9.615876, -37.647540) "></path>
                    <path d="M21.2713265,24.5636793 C22.9682139,23.0858301 25.3651074,20.5952163 28.462007,17.0918379" id="Path-2" stroke="#FFFFFF" opacity="0.16" transform="translate(24.866667, 20.827759) rotate(20.000000) translate(-24.866667, -20.827759) "></path>
                </g>
                <g id="leaf" transform="translate(92.357724, 39.674797)" stroke-width="3">
                    <path d="M45.4460472,14.2594682 C37.43336,8.98359431 31.0651654,7.82935423 26.3414634,0 C21.6177614,7.82935423 15.2495668,8.98359431 7.23687963,14.2594682 C-4.78215117,22.173279 -3.99830134,53.9837398 26.3414634,53.9837398 C56.6812282,53.9837398 57.465078,22.173279 45.4460472,14.2594682 Z" id="Path" stroke="#C3D8BC" fill="#8AAB7E" transform="translate(26.341463, 26.991870) scale(-1, 1) translate(-26.341463, -26.991870) "></path>
                    <path d="M8.74131568,21.1463685 C9.16272078,20.1577027 10.4706183,19.1506328 12.6650083,18.1251589" id="Path-2" stroke="#FFFFFF" opacity="0.48"></path>
                    <path d="M3.85218781,29.7986808 C4.51853065,28.2353623 6.58663127,26.6429426 10.0564897,25.0214217" id="Path-2" stroke="#FFFFFF" opacity="0.16" transform="translate(6.954339, 27.410051) rotate(-45.000000) translate(-6.954339, -27.410051) "></path>
                    <path d="M15.3837272,17.8840823 C16.6109404,16.8081044 18.3444081,14.9947627 20.5841301,12.4440574" id="Path-2" stroke="#FFFFFF" opacity="0.16" transform="translate(17.983929, 15.164070) rotate(20.000000) translate(-17.983929, -15.164070) "></path>
                </g>
                <g id="leaf-3" transform="translate(66.666667, 120.000000) rotate(-90.000000) translate(-66.666667, -120.000000) translate(40.325203, 93.008130)" stroke-width="3">
                    <path d="M45.4460472,14.2594682 C37.43336,8.98359431 31.0651654,7.82935423 26.3414634,0 C21.6177614,7.82935423 15.2495668,8.98359431 7.23687963,14.2594682 C-4.78215117,22.173279 -3.99830134,53.9837398 26.3414634,53.9837398 C56.6812282,53.9837398 57.465078,22.173279 45.4460472,14.2594682 Z" id="Path" stroke="#C3D8BC" fill="#8AAB7E" transform="translate(26.341463, 26.991870) scale(-1, 1) translate(-26.341463, -26.991870) "></path>
                    <path d="M8.74131568,21.1463685 C9.16272078,20.1577027 10.4706183,19.1506328 12.6650083,18.1251589" id="Path-2" stroke="#FFFFFF" opacity="0.48"></path>
                    <path d="M3.85218781,29.7986808 C4.51853065,28.2353623 6.58663127,26.6429426 10.0564897,25.0214217" id="Path-2" stroke="#FFFFFF" opacity="0.16" transform="translate(6.954339, 27.410051) rotate(-45.000000) translate(-6.954339, -27.410051) "></path>
                    <path d="M15.3837272,17.8840823 C16.6109404,16.8081044 18.3444081,14.9947627 20.5841301,12.4440574" id="Path-2" stroke="#FFFFFF" opacity="0.16" transform="translate(17.983929, 15.164070) rotate(20.000000) translate(-17.983929, -15.164070) "></path>
                </g>
                <g id="leaf-2" transform="translate(82.926829, 86.504065) rotate(-45.000000) translate(-82.926829, -86.504065) translate(56.585366, 59.186992)" stroke-width="3">
                    <path d="M45.4460472,14.3177497 C37.43336,9.0203122 31.0651654,7.86135449 26.3414634,0 C21.6177614,7.86135449 15.2495668,9.0203122 7.23687963,14.3177497 C-4.78215117,22.263906 -3.99830134,54.204383 26.3414634,54.204383 C56.6812282,54.204383 57.465078,22.263906 45.4460472,14.3177497 Z" id="Path" stroke="#C3D8BC" fill="url(#linearGradient-3)" transform="translate(26.341463, 27.102192) scale(-1, 1) translate(-26.341463, -27.102192) "></path>
                    <path d="M8.74131568,21.2327982 C9.16272078,20.2400915 10.4706183,19.2289056 12.6650083,18.1992403" id="Path-2" stroke="#FFFFFF" opacity="0.48"></path>
                    <path d="M3.85218781,29.9204744 C4.51853065,28.3507663 6.58663127,26.7518381 10.0564897,25.1236896" id="Path-2" stroke="#FFFFFF" opacity="0.16" transform="translate(6.954339, 27.522082) rotate(-45.000000) translate(-6.954339, -27.522082) "></path>
                    <path d="M15.3837272,17.9571784 C16.6109404,16.8768027 18.3444081,15.0560496 20.5841301,12.494919" id="Path-2" stroke="#FFFFFF" opacity="0.16" transform="translate(17.983929, 15.226049) rotate(20.000000) translate(-17.983929, -15.226049) "></path>
                </g>
                <g id="leaf-5" transform="translate(118.699187, 177.235772) rotate(-180.000000) translate(-118.699187, -177.235772) translate(92.357724, 150.243902)" stroke-width="3">
                    <path d="M45.4460472,14.2594682 C37.43336,8.98359431 31.0651654,7.82935423 26.3414634,0 C21.6177614,7.82935423 15.2495668,8.98359431 7.23687963,14.2594682 C-4.78215117,22.173279 -3.99830134,53.9837398 26.3414634,53.9837398 C56.6812282,53.9837398 57.465078,22.173279 45.4460472,14.2594682 Z" id="Path" stroke="#C3D8BC" fill="#8AAB7E" transform="translate(26.341463, 26.991870) scale(-1, 1) translate(-26.341463, -26.991870) "></path>
                    <path d="M8.74131568,21.1463685 C9.16272078,20.1577027 10.4706183,19.1506328 12.6650083,18.1251589" id="Path-2" stroke="#FFFFFF" opacity="0.48"></path>
                    <path d="M3.85218781,29.7986808 C4.51853065,28.2353623 6.58663127,26.6429426 10.0564897,25.0214217" id="Path-2" stroke="#FFFFFF" opacity="0.16" transform="translate(6.954339, 27.410051) rotate(-45.000000) translate(-6.954339, -27.410051) "></path>
                    <path d="M15.3837272,17.8840823 C16.6109404,16.8081044 18.3444081,14.9947627 20.5841301,12.4440574" id="Path-2" stroke="#FFFFFF" opacity="0.16" transform="translate(17.983929, 15.164070) rotate(20.000000) translate(-17.983929, -15.164070) "></path>
                </g>
                <g id="leaf-7" transform="translate(170.731707, 123.902439) rotate(-270.000000) translate(-170.731707, -123.902439) translate(144.390244, 96.910569)" stroke-width="3">
                    <path d="M45.4460472,14.2594682 C37.43336,8.98359431 31.0651654,7.82935423 26.3414634,0 C21.6177614,7.82935423 15.2495668,8.98359431 7.23687963,14.2594682 C-4.78215117,22.173279 -3.99830134,53.9837398 26.3414634,53.9837398 C56.6812282,53.9837398 57.465078,22.173279 45.4460472,14.2594682 Z" id="Path" stroke="#C3D8BC" fill="#8AAB7E" transform="translate(26.341463, 26.991870) scale(-1, 1) translate(-26.341463, -26.991870) "></path>
                    <path d="M8.74131568,21.1463685 C9.16272078,20.1577027 10.4706183,19.1506328 12.6650083,18.1251589" id="Path-2" stroke="#FFFFFF" opacity="0.48"></path>
                    <path d="M3.85218781,29.7986808 C4.51853065,28.2353623 6.58663127,26.6429426 10.0564897,25.0214217" id="Path-2" stroke="#FFFFFF" opacity="0.16" transform="translate(6.954339, 27.410051) rotate(-45.000000) translate(-6.954339, -27.410051) "></path>
                    <path d="M15.3837272,17.8840823 C16.6109404,16.8081044 18.3444081,14.9947627 20.5841301,12.4440574" id="Path-2" stroke="#FFFFFF" opacity="0.16" transform="translate(17.983929, 15.164070) rotate(20.000000) translate(-17.983929, -15.164070) "></path>
                </g>
                <g id="leaf-8" transform="translate(154.471545, 86.504065) rotate(-315.000000) translate(-154.471545, -86.504065) translate(128.130081, 59.186992)" stroke-width="3">
                    <path d="M45.4460472,14.3177497 C37.43336,9.0203122 31.0651654,7.86135449 26.3414634,0 C21.6177614,7.86135449 15.2495668,9.0203122 7.23687963,14.3177497 C-4.78215117,22.263906 -3.99830134,54.204383 26.3414634,54.204383 C56.6812282,54.204383 57.465078,22.263906 45.4460472,14.3177497 Z" id="Path" stroke="#C3D8BC" fill="url(#linearGradient-3)" transform="translate(26.341463, 27.102192) scale(-1, 1) translate(-26.341463, -27.102192) "></path>
                    <path d="M8.74131568,21.2327982 C9.16272078,20.2400915 10.4706183,19.2289056 12.6650083,18.1992403" id="Path-2" stroke="#FFFFFF" opacity="0.48"></path>
                    <path d="M3.85218781,29.9204744 C4.51853065,28.3507663 6.58663127,26.7518381 10.0564897,25.1236896" id="Path-2" stroke="#FFFFFF" opacity="0.16" transform="translate(6.954339, 27.522082) rotate(-45.000000) translate(-6.954339, -27.522082) "></path>
                    <path d="M15.3837272,17.9571784 C16.6109404,16.8768027 18.3444081,15.0560496 20.5841301,12.494919" id="Path-2" stroke="#FFFFFF" opacity="0.16" transform="translate(17.983929, 15.226049) rotate(20.000000) translate(-17.983929, -15.226049) "></path>
                </g>
                <g id="leaf-6" transform="translate(153.170732, 160.000000) rotate(-255.000000) translate(-153.170732, -160.000000) translate(126.829268, 132.682927)" stroke-width="3">
                    <path d="M45.4460472,14.3177497 C37.43336,9.0203122 31.0651654,7.86135449 26.3414634,0 C21.6177614,7.86135449 15.2495668,9.0203122 7.23687963,14.3177497 C-4.78215117,22.263906 -3.99830134,54.204383 26.3414634,54.204383 C56.6812282,54.204383 57.465078,22.263906 45.4460472,14.3177497 Z" id="Path" stroke="#C3D8BC" fill="url(#linearGradient-3)" transform="translate(26.341463, 27.102192) scale(-1, 1) translate(-26.341463, -27.102192) "></path>
                    <path d="M8.74131568,21.2327982 C9.16272078,20.2400915 10.4706183,19.2289056 12.6650083,18.1992403" id="Path-2" stroke="#FFFFFF" opacity="0.48"></path>
                    <path d="M3.85218781,29.9204744 C4.51853065,28.3507663 6.58663127,26.7518381 10.0564897,25.1236896" id="Path-2" stroke="#FFFFFF" opacity="0.16" transform="translate(6.954339, 27.522082) rotate(-45.000000) translate(-6.954339, -27.522082) "></path>
                    <path d="M15.3837272,17.9571784 C16.6109404,16.8768027 18.3444081,15.0560496 20.5841301,12.494919" id="Path-2" stroke="#FFFFFF" opacity="0.16" transform="translate(17.983929, 15.226049) rotate(20.000000) translate(-17.983929, -15.226049) "></path>
                </g>
                <g id="leaf-4" transform="translate(82.926829, 160.000000) rotate(-105.000000) translate(-82.926829, -160.000000) translate(56.585366, 132.682927)" stroke-width="3">
                    <path d="M45.4460472,14.3177497 C37.43336,9.0203122 31.0651654,7.86135449 26.3414634,0 C21.6177614,7.86135449 15.2495668,9.0203122 7.23687963,14.3177497 C-4.78215117,22.263906 -3.99830134,54.204383 26.3414634,54.204383 C56.6812282,54.204383 57.465078,22.263906 45.4460472,14.3177497 Z" id="Path" stroke="#C3D8BC" fill="url(#linearGradient-3)" transform="translate(26.341463, 27.102192) scale(-1, 1) translate(-26.341463, -27.102192) "></path>
                    <path d="M8.74131568,21.2327982 C9.16272078,20.2400915 10.4706183,19.2289056 12.6650083,18.1992403" id="Path-2" stroke="#FFFFFF" opacity="0.48"></path>
                    <path d="M3.85218781,29.9204744 C4.51853065,28.3507663 6.58663127,26.7518381 10.0564897,25.1236896" id="Path-2" stroke="#FFFFFF" opacity="0.16" transform="translate(6.954339, 27.522082) rotate(-45.000000) translate(-6.954339, -27.522082) "></path>
                    <path d="M15.3837272,17.9571784 C16.6109404,16.8768027 18.3444081,15.0560496 20.5841301,12.494919" id="Path-2" stroke="#FFFFFF" opacity="0.16" transform="translate(17.983929, 15.226049) rotate(20.000000) translate(-17.983929, -15.226049) "></path>
                </g>
                <g id="leaf" transform="translate(92.357724, 66.991870)" stroke-width="3">
                    <path d="M45.4460472,14.3177497 C37.43336,9.0203122 31.0651654,7.86135449 26.3414634,0 C21.6177614,7.86135449 15.2495668,9.0203122 7.23687963,14.3177497 C-4.78215117,22.263906 -3.99830134,54.204383 26.3414634,54.204383 C56.6812282,54.204383 57.465078,22.263906 45.4460472,14.3177497 Z" id="Path" stroke="#D5E7D0" fill="url(#linearGradient-4)" transform="translate(26.341463, 27.102192) scale(-1, 1) translate(-26.341463, -27.102192) "></path>
                    <path d="M8.74131568,21.2327982 C9.16272078,20.2400915 10.4706183,19.2289056 12.6650083,18.1992403" id="Path-2" stroke="#FFFFFF" opacity="0.48"></path>
                    <path d="M3.85218781,29.9204744 C4.51853065,28.3507663 6.58663127,26.7518381 10.0564897,25.1236896" id="Path-2" stroke="#FFFFFF" opacity="0.16" transform="translate(6.954339, 27.522082) rotate(-45.000000) translate(-6.954339, -27.522082) "></path>
                    <path d="M15.3837272,17.9571784 C16.6109404,16.8768027 18.3444081,15.0560496 20.5841301,12.494919" id="Path-2" stroke="#FFFFFF" opacity="0.16" transform="translate(17.983929, 15.226049) rotate(20.000000) translate(-17.983929, -15.226049) "></path>
                </g>
                <g id="leaf" transform="translate(118.699187, 147.642276) rotate(-180.000000) translate(-118.699187, -147.642276) translate(92.357724, 120.325203)" stroke-width="3">
                    <path d="M45.4460472,14.3177497 C37.43336,9.0203122 31.0651654,7.86135449 26.3414634,0 C21.6177614,7.86135449 15.2495668,9.0203122 7.23687963,14.3177497 C-4.78215117,22.263906 -3.99830134,54.204383 26.3414634,54.204383 C56.6812282,54.204383 57.465078,22.263906 45.4460472,14.3177497 Z" id="Path" stroke="#D5E7D0" fill="url(#linearGradient-4)" transform="translate(26.341463, 27.102192) scale(-1, 1) translate(-26.341463, -27.102192) "></path>
                    <path d="M8.74131568,21.2327982 C9.16272078,20.2400915 10.4706183,19.2289056 12.6650083,18.1992403" id="Path-2" stroke="#FFFFFF" opacity="0.48"></path>
                    <path d="M3.85218781,29.9204744 C4.51853065,28.3507663 6.58663127,26.7518381 10.0564897,25.1236896" id="Path-2" stroke="#FFFFFF" opacity="0.16" transform="translate(6.954339, 27.522082) rotate(-45.000000) translate(-6.954339, -27.522082) "></path>
                    <path d="M15.3837272,17.9571784 C16.6109404,16.8768027 18.3444081,15.0560496 20.5841301,12.494919" id="Path-2" stroke="#FFFFFF" opacity="0.16" transform="translate(17.983929, 15.226049) rotate(20.000000) translate(-17.983929, -15.226049) "></path>
                </g>
                <g id="leaf" transform="translate(91.382114, 120.325203) rotate(-90.000000) translate(-91.382114, -120.325203) translate(65.040650, 93.008130)" stroke-width="3">
                    <path d="M45.4460472,14.3177497 C37.43336,9.0203122 31.0651654,7.86135449 26.3414634,0 C21.6177614,7.86135449 15.2495668,9.0203122 7.23687963,14.3177497 C-4.78215117,22.263906 -3.99830134,54.204383 26.3414634,54.204383 C56.6812282,54.204383 57.465078,22.263906 45.4460472,14.3177497 Z" id="Path" stroke="#D5E7D0" fill="url(#linearGradient-4)" transform="translate(26.341463, 27.102192) scale(-1, 1) translate(-26.341463, -27.102192) "></path>
                    <path d="M8.74131568,21.2327982 C9.16272078,20.2400915 10.4706183,19.2289056 12.6650083,18.1992403" id="Path-2" stroke="#FFFFFF" opacity="0.48"></path>
                    <path d="M3.85218781,29.9204744 C4.51853065,28.3507663 6.58663127,26.7518381 10.0564897,25.1236896" id="Path-2" stroke="#FFFFFF" opacity="0.16" transform="translate(6.954339, 27.522082) rotate(-45.000000) translate(-6.954339, -27.522082) "></path>
                    <path d="M15.3837272,17.9571784 C16.6109404,16.8768027 18.3444081,15.0560496 20.5841301,12.494919" id="Path-2" stroke="#FFFFFF" opacity="0.16" transform="translate(17.983929, 15.226049) rotate(20.000000) translate(-17.983929, -15.226049) "></path>
                </g>
                <g id="leaf" transform="translate(145.365854, 120.325203) rotate(-270.000000) translate(-145.365854, -120.325203) translate(119.024390, 93.008130)" stroke-width="3">
                    <path d="M45.4460472,14.3177497 C37.43336,9.0203122 31.0651654,7.86135449 26.3414634,0 C21.6177614,7.86135449 15.2495668,9.0203122 7.23687963,14.3177497 C-4.78215117,22.263906 -3.99830134,54.204383 26.3414634,54.204383 C56.6812282,54.204383 57.465078,22.263906 45.4460472,14.3177497 Z" id="Path" stroke="#D5E7D0" fill="url(#linearGradient-4)" transform="translate(26.341463, 27.102192) scale(-1, 1) translate(-26.341463, -27.102192) "></path>
                    <path d="M8.74131568,21.2327982 C9.16272078,20.2400915 10.4706183,19.2289056 12.6650083,18.1992403" id="Path-2" stroke="#FFFFFF" opacity="0.48"></path>
                    <path d="M3.85218781,29.9204744 C4.51853065,28.3507663 6.58663127,26.7518381 10.0564897,25.1236896" id="Path-2" stroke="#FFFFFF" opacity="0.16" transform="translate(6.954339, 27.522082) rotate(-45.000000) translate(-6.954339, -27.522082) "></path>
                    <path d="M15.3837272,17.9571784 C16.6109404,16.8768027 18.3444081,15.0560496 20.5841301,12.494919" id="Path-2" stroke="#FFFFFF" opacity="0.16" transform="translate(17.983929, 15.226049) rotate(20.000000) translate(-17.983929, -15.226049) "></path>
                </g>
                <g id="center" transform="translate(91.707317, 89.756098)">
                    <polygon id="Path-4" stroke="#979797" fill="#8AAB7E" points="29.1842285 13.2564389 12.823991 23.700372 15.8817939 45.1915422 37.3907064 47.8185015 45.5479805 26.5460209"></polygon>
                    <path d="M7.62335801,14.7629557 C7.59095872,9.50375712 11.5700716,6.87415786 19.5606968,6.87415786 C27.5513219,6.87415786 31.5466345,9.50375712 31.5466345,14.7629557 C31.5466345,19.0631027 27.559389,21.2131762 19.5848981,21.2131762 C11.6104072,21.2131762 7.62322717,19.0631027 7.62335801,14.7629557 Z" id="Path-3" stroke="#D5E7D0" stroke-width="3" fill="#AFC6A3" transform="translate(19.584898, 14.043667) rotate(-45.000000) translate(-19.584898, -14.043667) "></path>
                    <path d="M-1.66292085,35.2263273 C-1.69532014,29.9671288 2.28379278,27.3375295 10.2744179,27.3375295 C18.265043,27.3375295 22.2603556,29.9671288 22.2603556,35.2263273 C22.2603556,39.5264744 18.2731102,41.6765479 10.2986193,41.6765479 C2.32412835,41.6765479 -1.66305169,39.5264744 -1.66292085,35.2263273 Z" id="Path-3" stroke="#D5E7D0" stroke-width="3" fill="#AFC6A3" transform="translate(10.298619, 34.507039) rotate(-105.000000) translate(-10.298619, -34.507039) "></path>
                    <path d="M15.2859303,51.6734564 C15.253531,46.4142579 19.2326439,43.7846586 27.223269,43.7846586 C35.2138942,43.7846586 39.2092067,46.4142579 39.2092067,51.6734564 C39.2092067,55.9736035 35.2219613,58.123677 27.2474704,58.123677 C19.2729795,58.123677 15.2857994,55.9736035 15.2859303,51.6734564 Z" id="Path-3" stroke="#D5E7D0" stroke-width="3" fill="#AFC6A3" transform="translate(27.247470, 50.954168) rotate(-165.000000) translate(-27.247470, -50.954168) "></path>
                    <path d="M34.1738889,39.1681385 C34.1414897,33.9089399 38.1206026,31.2793407 46.1112277,31.2793407 C54.1018528,31.2793407 58.0971654,33.9089399 58.0971654,39.1681385 C58.0971654,43.4682855 54.1099199,45.6183591 46.135429,45.6183591 C38.1609381,45.6183591 34.1737581,43.4682855 34.1738889,39.1681385 Z" id="Path-3" stroke="#D5E7D0" stroke-width="3" fill="#AFC6A3" transform="translate(46.135429, 38.448850) rotate(-240.000000) translate(-46.135429, -38.448850) "></path>
                    <path d="M29.0124885,17.8565452 C28.9800893,12.5973467 32.9592022,9.96774741 40.9498273,9.96774741 C48.9404524,9.96774741 52.935765,12.5973467 52.935765,17.8565452 C52.935765,22.1566923 48.9485195,24.3067658 40.9740286,24.3067658 C32.9995377,24.3067658 29.0123577,22.1566923 29.0124885,17.8565452 Z" id="Path-3" stroke="#D5E7D0" stroke-width="3" fill="#AFC6A3" transform="translate(40.974029, 17.137257) rotate(-315.000000) translate(-40.974029, -17.137257) "></path>
                    <path d="M35.1467243,38.5975063 C32.0072352,37.0516962 29.3504848,35.2670196 27.1764731,33.2434764 C25.0024614,31.2199333 23.199667,28.8537209 21.7680898,26.1448392 C24.9845991,27.3880097 27.7002475,29.0403432 29.9150349,31.1018399 C32.1298224,33.1633365 33.8737188,35.661892 35.1467243,38.5975063 Z" id="Path-5" fill="#67825E"></path>
                    <path d="M35.1467243,38.5975063 C32.0072352,37.0516962 29.3504848,35.2670196 27.1764731,33.2434764 C25.0024614,31.2199333 23.199667,28.8537209 21.7680898,26.1448392 C24.9845991,27.3880097 27.7002475,29.0403432 29.9150349,31.1018399 C32.1298224,33.1633365 33.8737188,35.661892 35.1467243,38.5975063 Z" id="Path-5" fill="#67825E" transform="translate(28.457407, 32.371173) rotate(-90.000000) translate(-28.457407, -32.371173) "></path>
                </g>
            </g>
        </g>
    </g>
</svg>