<svg xmlns="http://www.w3.org/2000/svg" viewBox="0 0 211.94 206.45"><defs><style>.cls-1{fill:#d0d0d0;}.cls-2{fill:#e5ddcb;stroke:#a89b85;}.cls-2,.cls-3,.cls-5,.cls-6,.cls-7{stroke-miterlimit:10;}.cls-3{fill:#a2b19c;stroke:#869380;}.cls-4{fill:#869380;}.cls-5{fill:none;stroke:#745946;}.cls-6{fill:#c4c779;stroke:#a8a863;}.cls-7{fill:#303030;stroke:#101010;}.cls-8{fill:#fff;opacity:0.5;}</style></defs><title>Asset 9</title><g id="Layer_2" data-name="Layer 2"><g id="Layer_3" data-name="Layer 3"><rect class="cls-1" x="2.28" y="164.31" width="39.71" height="12.16" rx="5" ry="5" transform="matrix(0.97, -0.25, 0.25, 0.97, -42.68, 11.26)"/><rect class="cls-2" x="0.28" y="162.31" width="39.71" height="12.16" rx="5" ry="5" transform="translate(-42.24 10.69) rotate(-14.76)"/><circle class="cls-1" cx="71.16" cy="157.83" r="48.62"/><circle class="cls-2" cx="69.16" cy="155.83" r="48.62"/><circle class="cls-3" cx="69.16" cy="155.83" r="42.54"/><path class="cls-4" d="M74.14,134.19c10.63.24,23.56-7.56,30.36,6.51s-3.46,20.56-5.42,30.36c-2.17,10.84-6.51,24.94-19.52,14.1a33.45,33.45,0,0,0-27.11-7.59s-19.52,0-14.1-20.6-7.59-16.26,6.51-29.28C57.71,115.82,61.13,133.89,74.14,134.19Z"/><circle class="cls-4" cx="72.28" cy="129.45" r="2"/><circle class="cls-4" cx="67.28" cy="125.45" r="1"/><circle class="cls-4" cx="73.28" cy="124.45" r="1"/><circle class="cls-4" cx="70.28" cy="121.45" r="1"/><circle class="cls-4" cx="78.28" cy="127.45" r="1"/><circle class="cls-4" cx="78.28" cy="122.45" r="2"/><circle class="cls-4" cx="62.28" cy="191.45" r="3"/><circle class="cls-4" cx="58.78" cy="183.95" r="1.5"/><circle class="cls-4" cx="65.28" cy="184.45" r="2"/><circle class="cls-4" cx="57.28" cy="188.45" r="1"/><circle class="cls-4" cx="68.28" cy="188.45" r="1"/><circle class="cls-4" cx="54.28" cy="183.45" r="1"/><circle class="cls-4" cx="34.28" cy="149.45" r="2"/><circle class="cls-4" cx="34.28" cy="156.45" r="1"/><circle class="cls-4" cx="35.28" cy="143.45" r="1"/><path class="cls-5" d="M20.28,100.45s-3,15,3,21a25.73,25.73,0,0,0,13.33,7"/><rect class="cls-6" x="12.13" y="78.19" width="20.17" height="22" rx="4" ry="4" transform="translate(14.75 -2.42) rotate(9.33)"/></g><g id="Layer_5" data-name="Layer 5"><path class="cls-1" d="M208.05,123.74C136.42,53.57,97.68,35.3,77.22,28c-1.42-.51-1.46,5.85-1.46,5.85S101.34,39,131.3,61.61c21.06,15.92,73.09,65.78,73.09,65.78S209,124.64,208.05,123.74Z"/><path class="cls-1" d="M90,5.72c70.17,71.63,88.44,110.37,95.75,130.84.51,1.42-5.85,1.46-5.85,1.46s-5.12-25.58-27.78-55.55C136.24,61.41,86.38,9.37,86.38,9.37S89.13,4.8,90,5.72Z"/><path class="cls-1" d="M146.41,80.89c6.59-9.2-4.26-20-14-13.25-12.55,8.76-24.26,20.18-35.64,8.81-14-14-19.67-18.8-25.63-25.63-6.94-8-9.92-20.59,15.08-45.59C97.54-6.05,132.92,36,139.41,50.8c2.23,5.11,10,18.54,21.19,22.74,15.09,5.66,60.38,43.73,49,55.07-9.71,9.71-33.09,27.58-47.07,13.6s-19.67-18.8-25.63-25.63C130.63,109.34,130.63,102.94,146.41,80.89Zm-72-31.34C79.9,55.75,85.07,60.15,97.8,72.88s28.25-4.21,36.77-12.73C145.17,49.55,97.8-.66,87.19,9.95,65.26,31.88,68.12,42.31,74.46,49.55Zm79.2,29.7c-21.93,21.93-19.77,28.83-13.44,36.06,5.44,6.21,10.61,10.61,23.33,23.33s33.2-2.09,41.72-10.61C215.88,117.43,164.26,68.64,153.66,79.25Z"/><path class="cls-7" d="M90.74,3.6C160.91,75.23,179.18,114,186.49,134.44c.51,1.42-5.85,1.46-5.85,1.46s-5.12-25.58-27.78-55.55C136.94,59.28,87.08,7.25,87.08,7.25S89.83,2.68,90.74,3.6Z"/><path class="cls-7" d="M208.76,121.62C137.13,51.45,98.39,33.18,77.92,25.87c-1.42-.51-1.46,5.85-1.46,5.85S102,36.83,132,59.49c21.06,15.92,73.09,65.78,73.09,65.78S209.68,122.52,208.76,121.62Z"/><polygon class="cls-8" points="90.73 2.88 70.94 26.2 67.68 40.15 102.6 75.07 113.63 75.18 138.04 58.2 136.37 46.08 120.97 25.67 106.28 11.36 90.73 2.88"/><polygon class="cls-8" points="156.79 71.16 138.67 92.94 135.09 107.56 171.18 143.65 182.71 143.64 208.42 125.6 206.81 112.95 190.25 92.5 173.66 79.14 156.79 71.16"/><polygon class="cls-8" points="111.4 17.02 128.63 35.34 85.8 58.28 67.68 40.15 111.4 17.02"/><polygon class="cls-8" points="179.75 84.45 196.97 102.76 154.15 125.7 136.02 107.57 179.75 84.45"/><path class="cls-7" d="M146.41,78.06c6.59-9.2-4.26-20-14-13.25C119.89,73.58,108.18,85,96.8,73.62c-14-14-19.67-18.8-25.63-25.63C64.23,40,61.25,27.4,86.25,2.4,97.54-8.88,132.92,33.13,139.41,48c2.23,5.11,10,18.54,21.19,22.74,15.09,5.66,60.38,43.73,49,55.07-9.71,9.71-33.09,27.58-47.07,13.6s-19.67-18.8-25.63-25.63C130.63,106.51,130.63,100.11,146.41,78.06Zm-72-31.34C79.9,52.92,85.07,57.33,97.8,70.05s28.25-4.21,36.77-12.73C145.17,46.72,97.8-3.49,87.19,7.12,65.26,29.05,68.12,39.48,74.46,46.72Zm79.2,29.7c-21.93,21.93-19.77,28.83-13.44,36.06,5.44,6.21,10.61,10.61,23.33,23.33s33.2-2.09,41.72-10.61C215.88,114.6,164.26,65.81,153.66,76.42Z"/></g></g></svg>