<?xml version="1.0" encoding="UTF-8"?>
<svg width="147px" height="149px" viewBox="0 0 147 149" version="1.1" xmlns="http://www.w3.org/2000/svg" xmlns:xlink="http://www.w3.org/1999/xlink">
    <!-- Generator: Sketch 51.3 (57544) - http://www.bohemiancoding.com/sketch -->
    <title>glasses</title>
    <desc>Created with Sketch.</desc>
    <defs></defs>
    <g id="Page-1" stroke="none" stroke-width="1" fill="none" fill-rule="evenodd">
        <g id="glasses-and-tea" transform="translate(-66.000000, 0.000000)" fill-rule="nonzero">
            <g id="glasses" transform="translate(67.000000, 0.000000)">
                <path d="M90.0887456,82.5836403 C108.159069,107.980221 115.665462,125.122177 119.75,136.56 C120.26,137.98 113.9,138.02 113.9,138.02 C113.9,138.02 108.78,112.44 86.12,82.47 C83.684392,79.2399053 80.4494337,75.2810326 76.7176226,70.8929211 C72.3931976,67.2137297 68.4910751,64.0222467 65.3,61.61 C35.34,39 9.76,33.85 9.76,33.85 C9.76,33.85 9.8,27.49 11.22,28 C22.6362721,32.0732545 39.7438714,39.5619279 65.0808834,57.5764819 C44.9443555,35.0083687 20.38,9.37 20.38,9.37 C20.38,9.37 23.13,4.8 24,5.72 C47.9876172,30.2067182 65.9101252,50.8498634 79.4030398,68.2334913 C96.8141288,81.7378562 117.500394,99.6907768 142.05,123.74 C143,124.64 138.39,127.39 138.39,127.39 C138.39,127.39 112.678759,102.75109 90.0887512,82.5836482 Z M80.41,81.89 C87,72.69 76.15,61.89 66.41,68.64 C53.86,77.4 42.15,88.82 30.77,77.45 C16.77,63.45 11.1,58.65 5.14,51.82 C-1.8,43.82 -4.78,31.23 20.22,6.23 C31.54,-5.05 66.92,37 73.41,51.8 C75.64,56.91 83.41,70.34 94.6,74.54 C109.69,80.2 154.98,118.27 143.6,129.61 C133.89,139.32 110.51,157.19 96.53,143.21 C82.55,129.23 76.86,124.41 70.9,117.58 C64.63,110.34 64.63,103.94 80.41,81.89 Z M8.41,50.55 C13.9,56.75 19.07,61.15 31.8,73.88 C44.53,86.61 60.05,69.67 68.57,61.15 C79.17,50.55 31.8,0.34 21.19,10.95 C-0.74,32.88 2.12,43.31 8.46,50.55 L8.41,50.55 Z M87.61,80.25 C65.68,102.18 67.84,109.08 74.17,116.31 C79.61,122.52 84.78,126.92 97.5,139.64 C110.22,152.36 130.7,137.55 139.22,129.03 C149.88,118.43 98.26,69.64 87.66,80.25 L87.61,80.25 Z" id="Shape" fill-opacity="0.16" fill="#000000"></path>
                <path d="M24.74,3.6 C94.91,75.23 113.18,114 120.49,134.44 C121,135.86 114.64,135.9 114.64,135.9 C114.64,135.9 109.52,110.32 86.86,80.35 C70.94,59.28 21.08,7.25 21.08,7.25 C21.08,7.25 23.83,2.68 24.74,3.6 Z" id="Shape" stroke="#101010" fill="#303030"></path>
                <path d="M142.76,121.62 C71.13,51.45 32.39,33.18 11.92,25.87 C10.5,25.36 10.46,31.72 10.46,31.72 C10.46,31.72 36,36.83 66,59.49 C87.06,75.41 139.09,125.27 139.09,125.27 C139.09,125.27 143.68,122.52 142.76,121.62 Z" id="Shape" stroke="#101010" fill="#303030"></path>
                <polygon id="Shape" fill="#FFFFFF" opacity="0.5" points="24.73 2.88 4.94 26.2 1.68 40.15 36.6 75.07 47.63 75.18 72.04 58.2 70.37 46.08 54.97 25.67 40.28 11.36"></polygon>
                <polygon id="Shape" fill="#FFFFFF" opacity="0.5" points="90.79 71.16 72.67 92.94 69.09 107.56 105.18 143.65 116.71 143.64 142.42 125.6 140.81 112.95 124.25 92.5 107.66 79.14"></polygon>
                <polygon id="Shape" fill="#FFFFFF" opacity="0.5" points="45.4 17.02 62.63 35.34 19.8 58.28 1.68 40.15"></polygon>
                <polygon id="Shape" fill="#FFFFFF" opacity="0.5" points="113.75 84.45 130.97 102.76 88.15 125.7 70.02 107.57"></polygon>
                <path d="M80.41,78.06 C87,68.86 76.15,58.06 66.41,64.81 C53.89,73.58 42.18,85 30.8,73.62 C16.8,59.62 11.13,54.82 5.17,47.99 C-1.77,40 -4.75,27.4 20.25,2.4 C31.54,-8.88 66.92,33.13 73.41,48 C75.64,53.11 83.41,66.54 94.6,70.74 C109.69,76.4 154.98,114.47 143.6,125.81 C133.89,135.52 110.51,153.39 96.53,139.41 C82.55,125.43 76.86,120.61 70.9,113.78 C64.63,106.51 64.63,100.11 80.41,78.06 Z M8.41,46.72 C13.9,52.92 19.07,57.33 31.8,70.05 C44.53,82.77 60.05,65.84 68.57,57.32 C79.17,46.72 31.8,-3.49 21.19,7.12 C-0.74,29.05 2.12,39.48 8.46,46.72 L8.41,46.72 Z M87.61,76.42 C65.68,98.35 67.84,105.25 74.17,112.48 C79.61,118.69 84.78,123.09 97.5,135.81 C110.22,148.53 130.7,133.72 139.22,125.2 C149.88,114.6 98.26,65.81 87.66,76.42 L87.61,76.42 Z" id="Shape" stroke="#101010" fill="#303030"></path>
            </g>
        </g>
    </g>
</svg>