<svg xmlns="http://www.w3.org/2000/svg" viewBox="0 0 468.16 466.39"><defs><style>.cls-1{fill:#d0d0d0;}.cls-2{fill:#f5f5f5;}.cls-3{fill:#e5e5e5;}.cls-4{fill:#555;}.cls-4,.cls-6{stroke:#000;stroke-miterlimit:10;}.cls-5{fill:silver;opacity:0.3;}.cls-6{fill:#404040;}.cls-7{fill:#fff;}.cls-8{fill:#ffe082;}.cls-9{fill:#f2bd38;}.cls-10{fill:#f0f0f0;}.cls-11{fill:#d81b60;}</style></defs><title>Asset 8</title><g id="Layer_2" data-name="Layer 2"><g id="Layer_2-2" data-name="Layer 2"><path class="cls-1" d="M320.82,385.77,243.5,463.09c-5.14,5.14-14.53,4.18-20.85-2.14L97,335.26,337,95.2,462.71,220.88c6.32,6.32,7.29,15.7,2.14,20.85l-72.33,72.33-4.36,4.36.31.31h0a4,4,0,0,0-5.61,0l-61.73,61.73a4,4,0,0,0,0,5.61"/><path class="cls-2" d="M318,385.77l-77.32,77.32c-5.14,5.14-14.53,4.18-20.85-2.14L94.14,335.26,334.2,95.2,459.88,220.88c6.32,6.32,7.29,15.7,2.14,20.85l-72.33,72.33-4.36,4.36.31.31h0a4,4,0,0,0-5.61,0L318.3,380.47a4,4,0,0,0,0,5.61"/><rect class="cls-3" x="110.59" y="206.52" width="311.28" height="119.05" rx="5" ry="5" transform="translate(-110.15 266.18) rotate(-45)"/><rect class="cls-4" x="123.51" y="323.5" width="22.93" height="7.94" rx="1" ry="1" transform="translate(-192.02 191.36) rotate(-45)"/><rect class="cls-4" x="142.84" y="304.17" width="22.93" height="7.94" rx="1" ry="1" transform="translate(-172.69 199.36) rotate(-45)"/><rect class="cls-4" x="162.17" y="284.84" width="22.93" height="7.94" rx="1" ry="1" transform="translate(-153.36 207.37) rotate(-45)"/><rect class="cls-4" x="181.5" y="265.51" width="22.93" height="7.94" rx="1" ry="1" transform="translate(-134.03 215.38) rotate(-45)"/><rect class="cls-4" x="200.83" y="246.18" width="22.93" height="7.94" rx="1" ry="1" transform="translate(-114.7 223.38) rotate(-45)"/><rect class="cls-4" x="220.16" y="226.85" width="22.93" height="7.94" rx="1" ry="1" transform="translate(-95.37 231.39) rotate(-45)"/><rect class="cls-4" x="239.49" y="207.52" width="22.93" height="7.94" rx="1" ry="1" transform="translate(-76.04 239.4) rotate(-45)"/><rect class="cls-4" x="258.82" y="188.19" width="22.93" height="7.94" rx="1" ry="1" transform="translate(-56.71 247.4) rotate(-45)"/><rect class="cls-4" x="278.15" y="168.86" width="22.93" height="7.94" rx="1" ry="1" transform="translate(-37.38 255.41) rotate(-45)"/><rect class="cls-4" x="297.48" y="149.53" width="22.93" height="7.94" rx="1" ry="1" transform="translate(-18.05 263.42) rotate(-45)"/><rect class="cls-4" x="316.81" y="130.2" width="22.93" height="7.94" rx="1" ry="1" transform="translate(1.28 271.42) rotate(-45)"/><rect class="cls-4" x="135.33" y="332.62" width="16.75" height="15.87" rx="1" ry="1" transform="translate(-198.72 201.36) rotate(-45)"/><rect class="cls-4" x="151.54" y="316.41" width="16.75" height="15.87" rx="1" ry="1" transform="translate(-182.51 208.08) rotate(-45)"/><rect class="cls-4" x="167.13" y="300.82" width="16.75" height="15.87" rx="1" ry="1" transform="translate(-166.92 214.54) rotate(-45)"/><rect class="cls-4" x="183.34" y="284.61" width="16.75" height="15.87" rx="1" ry="1" transform="translate(-150.71 221.25) rotate(-45)"/><rect class="cls-4" x="199.56" y="268.4" width="16.75" height="15.87" rx="1" ry="1" transform="translate(-134.5 227.97) rotate(-45)"/><rect class="cls-4" x="215.14" y="252.81" width="16.75" height="15.87" rx="1" ry="1" transform="translate(-118.91 234.42) rotate(-45)"/><rect class="cls-4" x="230.73" y="237.22" width="16.75" height="15.87" rx="1" ry="1" transform="translate(-103.32 240.88) rotate(-45)"/><rect class="cls-4" x="246.32" y="221.63" width="16.75" height="15.87" rx="1" ry="1" transform="translate(-87.73 247.34) rotate(-45)"/><rect class="cls-4" x="261.91" y="206.05" width="16.75" height="15.87" rx="1" ry="1" transform="translate(-72.14 253.8) rotate(-45)"/><rect class="cls-4" x="277.5" y="190.46" width="16.75" height="15.87" rx="1" ry="1" transform="translate(-56.55 260.25) rotate(-45)"/><rect class="cls-4" x="293.09" y="174.87" width="16.75" height="15.87" rx="1" ry="1" transform="translate(-40.97 266.71) rotate(-45)"/><rect class="cls-4" x="308.67" y="159.28" width="16.75" height="15.87" rx="1" ry="1" transform="translate(-25.38 273.17) rotate(-45)"/><rect class="cls-4" x="322.46" y="139.33" width="29.1" height="15.87" rx="1" ry="1" transform="translate(-5.42 281.43) rotate(-45)"/><rect class="cls-4" x="147.37" y="342.29" width="28.22" height="15.87" rx="1" ry="1" transform="translate(-200.35 216.76) rotate(-45)"/><rect class="cls-4" x="173.37" y="322.02" width="16.75" height="15.87" rx="1" ry="1" transform="translate(-180.09 225.16) rotate(-45)"/><rect class="cls-4" x="189.58" y="305.81" width="16.75" height="15.87" rx="1" ry="1" transform="translate(-163.87 231.87) rotate(-45)"/><rect class="cls-4" x="205.17" y="290.22" width="16.75" height="15.87" rx="1" ry="1" transform="translate(-148.28 238.33) rotate(-45)"/><rect class="cls-4" x="221.38" y="274.01" width="16.75" height="15.87" rx="1" ry="1" transform="translate(-132.07 245.04) rotate(-45)"/><rect class="cls-4" x="237.59" y="257.8" width="16.75" height="15.87" rx="1" ry="1" transform="translate(-115.86 251.76) rotate(-45)"/><rect class="cls-4" x="253.18" y="242.21" width="16.75" height="15.87" rx="1" ry="1" transform="translate(-100.27 258.21) rotate(-45)"/><rect class="cls-4" x="268.77" y="226.62" width="16.75" height="15.87" rx="1" ry="1" transform="translate(-84.68 264.67) rotate(-45)"/><rect class="cls-4" x="284.36" y="211.03" width="16.75" height="15.87" rx="1" ry="1" transform="translate(-69.1 271.13) rotate(-45)"/><rect class="cls-4" x="299.95" y="195.44" width="16.75" height="15.87" rx="1" ry="1" transform="translate(-53.51 277.59) rotate(-45)"/><rect class="cls-4" x="315.53" y="179.86" width="16.75" height="15.87" rx="1" ry="1" transform="translate(-37.92 284.04) rotate(-45)"/><rect class="cls-4" x="331.12" y="164.27" width="16.75" height="15.87" rx="1" ry="1" transform="translate(-22.33 290.5) rotate(-45)"/><rect class="cls-4" x="346.71" y="148.68" width="16.75" height="15.87" rx="1" ry="1" transform="translate(-6.74 296.96) rotate(-45)"/><rect class="cls-4" x="160.7" y="355.07" width="30.86" height="15.87" rx="1" ry="1" transform="translate(-205.1 230.87) rotate(-45)"/><rect class="cls-4" x="344.62" y="168.94" width="35.27" height="15.87" rx="1" ry="1" transform="translate(-18.97 307.96) rotate(-45)"/><rect class="cls-4" x="188.96" y="333.87" width="16.75" height="15.87" rx="1" ry="1" transform="translate(-183.9 239.65) rotate(-45)"/><rect class="cls-4" x="205.17" y="317.66" width="16.75" height="15.87" rx="1" ry="1" transform="translate(-167.68 246.36) rotate(-45)"/><rect class="cls-4" x="220.76" y="302.07" width="16.75" height="15.87" rx="1" ry="1" transform="translate(-152.1 252.82) rotate(-45)"/><rect class="cls-4" x="236.97" y="285.86" width="16.75" height="15.87" rx="1" ry="1" transform="translate(-135.88 259.54) rotate(-45)"/><rect class="cls-4" x="253.18" y="269.65" width="16.75" height="15.87" rx="1" ry="1" transform="translate(-119.67 266.25) rotate(-45)"/><rect class="cls-4" x="268.77" y="254.06" width="16.75" height="15.87" rx="1" ry="1" transform="translate(-104.08 272.71) rotate(-45)"/><rect class="cls-4" x="284.36" y="238.47" width="16.75" height="15.87" rx="1" ry="1" transform="translate(-88.5 279.16) rotate(-45)"/><rect class="cls-4" x="299.95" y="222.88" width="16.75" height="15.87" rx="1" ry="1" transform="translate(-72.91 285.62) rotate(-45)"/><rect class="cls-4" x="315.53" y="207.29" width="16.75" height="15.87" rx="1" ry="1" transform="translate(-57.32 292.08) rotate(-45)"/><rect class="cls-4" x="331.12" y="191.7" width="16.75" height="15.87" rx="1" ry="1" transform="translate(-41.73 298.54) rotate(-45)"/><rect class="cls-4" x="172.61" y="364.42" width="43.21" height="15.87" rx="1" ry="1" transform="translate(-206.41 246.39) rotate(-45)"/><rect class="cls-4" x="347.8" y="187.03" width="47.62" height="15.87" rx="1" ry="1" transform="translate(-29.02 319.87) rotate(-45)"/><rect class="cls-4" x="210.78" y="339.48" width="16.75" height="15.87" rx="1" ry="1" transform="translate(-181.47 256.72) rotate(-45)"/><rect class="cls-4" x="226.37" y="323.89" width="16.75" height="15.87" rx="1" ry="1" transform="translate(-165.88 263.18) rotate(-45)"/><rect class="cls-4" x="242.58" y="307.68" width="16.75" height="15.87" rx="1" ry="1" transform="translate(-149.67 269.9) rotate(-45)"/><rect class="cls-4" x="258.79" y="291.47" width="16.75" height="15.87" rx="1" ry="1" transform="translate(-133.46 276.61) rotate(-45)"/><rect class="cls-4" x="274.38" y="275.88" width="16.75" height="15.87" rx="1" ry="1" transform="translate(-117.87 283.07) rotate(-45)"/><rect class="cls-4" x="289.97" y="260.29" width="16.75" height="15.87" rx="1" ry="1" transform="translate(-102.28 289.52) rotate(-45)"/><rect class="cls-4" x="305.56" y="244.7" width="16.75" height="15.87" rx="1" ry="1" transform="translate(-86.69 295.98) rotate(-45)"/><rect class="cls-4" x="321.15" y="229.12" width="16.75" height="15.87" rx="1" ry="1" transform="translate(-71.11 302.44) rotate(-45)"/><rect class="cls-4" x="336.73" y="213.53" width="16.75" height="15.87" rx="1" ry="1" transform="translate(-55.52 308.9) rotate(-45)"/><rect class="cls-4" x="190.2" y="387.5" width="16.75" height="15.87" rx="1" ry="1" transform="translate(-221.45 256.24) rotate(-45)"/><rect class="cls-4" x="205.79" y="371.91" width="16.75" height="15.87" rx="1" ry="1" transform="translate(-205.86 262.69) rotate(-45)"/><rect class="cls-4" x="221.38" y="356.32" width="16.75" height="15.87" rx="1" ry="1" transform="translate(-190.27 269.15) rotate(-45)"/><rect class="cls-4" x="236.32" y="339.17" width="21.16" height="15.87" rx="1" ry="1" transform="translate(-173.13 276.25) rotate(-45)"/><rect class="cls-4" x="243.25" y="289.91" width="105.82" height="15.87" rx="1" ry="1" transform="translate(-123.87 296.66) rotate(-45)"/><rect class="cls-4" x="361.52" y="200.74" width="47.62" height="15.87" rx="1" ry="1" transform="translate(-34.7 333.59) rotate(-45)"/><rect class="cls-4" x="334.86" y="242.83" width="16.75" height="15.87" rx="1" ry="1" transform="translate(-76.79 316.16) rotate(-45)"/><rect class="cls-4" x="350.45" y="227.25" width="16.75" height="15.87" rx="1" ry="1" transform="translate(-61.2 322.61) rotate(-45)"/><rect class="cls-3" x="279.18" y="305.57" width="97.75" height="46.74" rx="1" ry="1" transform="translate(-136.51 328.31) rotate(-45)"/><rect class="cls-5" x="58.99" y="210.19" width="339" height="38" transform="translate(-95.14 228.69) rotate(-45)"/></g><g id="Layer_1-2" data-name="Layer 1"><path class="cls-6" d="M95.2,334.91l-91-62c-6.12-4.17-4.5-14.31,3.66-22.47L250.41,7.87c8.17-8.17,18.31-9.78,22.47-3.66l62,91Z"/><polygon class="cls-7" points="321.17 98.28 99.54 319.92 14.51 259.92 261.32 13.11 321.17 98.28"/><polygon class="cls-8" points="288.72 52.92 53.58 288.06 13.9 260.08 260.78 13.2 288.72 52.92"/><polygon class="cls-9" points="163.09 142.58 43.09 262.59 33.39 255.53 154.84 134.08 163.09 142.58"/><polygon class="cls-9" points="117.78 199.49 49.97 267.3 47.55 265.54 115.56 197.52 117.78 199.49"/><polygon class="cls-10" points="203.31 202.04 101.11 304.24 69.8 281.44 176.28 174.96 203.31 202.04"/><path class="cls-11" d="M272.16,69.69c1.93,2.61.45,7.75-3.3,11.5s-8.38,4.72-10.36,2.15-.54-7.76,3.25-11.56S270.21,67.06,272.16,69.69Z"/><polygon class="cls-10" points="250.8 104.4 184.85 170.34 182.9 168.34 249.03 102.2 250.8 104.4"/><polygon class="cls-10" points="236.06 130.1 190.27 175.88 188.35 173.92 234.27 128 236.06 130.1"/><polygon class="cls-10" points="250.41 125.77 195.23 180.95 193.33 179.01 248.67 123.67 250.41 125.77"/><polygon class="cls-10" points="245.21 140.84 200.11 185.94 198.24 184.03 243.47 138.8 245.21 140.84"/><polygon class="cls-10" points="268.87 126.9 204.92 190.85 203.08 188.97 267.21 124.84 268.87 126.9"/><polygon class="cls-10" points="273.14 132.21 209.66 195.69 207.84 193.84 271.5 130.18 273.14 132.21"/><polygon class="cls-9" points="104.58 224.27 56.51 272.35 54.13 270.62 102.35 222.4 104.58 224.27"/></g></g></svg>