<?xml version="1.0" encoding="UTF-8"?>
<svg width="36px" height="36px" viewBox="0 0 36 36" version="1.1" xmlns="http://www.w3.org/2000/svg" xmlns:xlink="http://www.w3.org/1999/xlink">
    <!-- Generator: Sketch 51.3 (57544) - http://www.bohemiancoding.com/sketch -->
    <title>project-duration</title>
    <desc>Created with Sketch.</desc>
    <defs></defs>
    <g id="Page-1" stroke="none" stroke-width="1" fill="none" fill-rule="evenodd">
        <g id="project-duration" fill="#858585" fill-rule="nonzero">
            <path d="M34.5630588,10.993 C32.6650588,6.568 29.4397647,3.34982353 24.9778235,1.44682353 C22.7477059,0.495705882 20.4112941,0.00988235294 17.9704118,0.00988235294 C15.5299412,0.00988235294 13.2107647,0.491117647 10.9831176,1.44682353 C6.55811765,3.34476471 3.31852941,6.56088235 1.41717647,10.993 C0.464411765,13.2134706 0,15.5397647 0,17.9802353 C0,20.4211765 0.464411765,22.7667647 1.41717647,24.9877059 C3.31852941,29.4198235 6.55852941,32.6552353 10.9831176,34.5536471 C13.2111765,35.5093529 15.5298824,35.9901176 17.9704118,35.9901176 C20.4109412,35.9901176 22.7477059,35.5042941 24.9774706,34.5536471 C29.4394118,32.6505882 32.6647059,29.4122941 34.5631176,24.9877059 C35.5187647,22.7596471 36,20.4211765 36,17.9802353 C36,15.5397647 35.5191765,13.221 34.5630588,10.993 Z M31.6896471,25.9325294 C30.2766471,28.3557647 28.3408824,30.2781765 25.9028824,31.6995294 C23.4796471,33.1125294 20.8245294,33.8251176 17.9708235,33.8251176 C15.8255294,33.8251176 13.7784706,33.4119412 11.8296471,32.5654118 C9.88088235,31.7192941 8.19829412,30.6069412 6.79076471,29.1998235 C5.38323529,27.7922941 4.26294118,26.0932941 3.42523529,24.1411765 C2.59,22.1961765 2.18523529,20.126 2.18523529,17.9802941 C2.18523529,15.1261765 2.88647059,12.4845294 4.29152941,10.068 C5.70158824,7.64264706 7.63776471,5.71817647 10.0585294,4.30094118 C12.4788824,2.88376471 15.1167647,2.17494118 17.9704118,2.17494118 C20.8245294,2.17494118 23.4791765,2.88794118 25.9024706,4.30094118 C28.3404706,5.72235294 30.2720588,7.64676471 31.6892353,10.0679412 C33.1064118,12.4887059 33.8148235,15.1261765 33.8148235,17.9802353 C33.8148235,20.8344118 33.1110588,23.4940588 31.6896471,25.9325294 Z" id="Shape"></path>
            <path d="M19.1121176,17.8228235 L19.1121176,7.627 C19.1121176,7.01688235 18.5805294,6.52476471 17.9703529,6.52476471 C17.3997059,6.52476471 16.8878235,7.01688235 16.8878235,7.627 L16.8878235,17.9802353 C16.8878235,18 16.9272941,18.0789412 16.9272941,18.1377647 C16.8878235,18.4921176 16.9865294,18.7873529 17.2225294,19.0237647 L23.108,24.9088235 C23.5018235,25.3026471 24.2299412,25.3026471 24.6234706,24.9088235 C25.0760588,24.4561765 25.0462941,23.7994118 24.6234706,23.3735882 L19.1121176,17.8228235 Z" id="Shape"></path>
        </g>
    </g>
</svg>