<?xml version="1.0" encoding="UTF-8"?>
<svg width="35px" height="36px" viewBox="0 0 35 36" version="1.1" xmlns="http://www.w3.org/2000/svg" xmlns:xlink="http://www.w3.org/1999/xlink">
    <!-- Generator: Sketch 51.3 (57544) - http://www.bohemiancoding.com/sketch -->
    <title>skills</title>
    <desc>Created with Sketch.</desc>
    <defs></defs>
    <g id="Page-1" stroke="none" stroke-width="1" fill="none" fill-rule="evenodd">
        <g id="skills" fill="#858585" fill-rule="nonzero">
            <path d="M18.5725572,17.5209979 L18.5725572,1.01039501 C18.5725572,0.449064449 18.1234927,0 17.5621622,0 C17.0008316,0 16.5517672,0.449064449 16.5517672,1.01039501 L16.5517672,17.5209979 C14.2091476,17.9925156 12.435343,20.0656965 12.435343,22.5505198 C12.435343,25.035343 14.2091476,27.1085239 16.5517672,27.5800416 L16.5517672,34.9297297 C16.5517672,35.4910603 17.0008316,35.9401247 17.5621622,35.9401247 C18.1234927,35.9401247 18.5725572,35.4910603 18.5725572,34.9297297 L18.5725572,27.5800416 C20.9151767,27.1085239 22.6889813,25.035343 22.6889813,22.5505198 C22.6889813,20.0731809 20.9226611,17.9925156 18.5725572,17.5209979 Z M17.5621622,25.6565489 C15.8482328,25.6565489 14.4561331,24.2644491 14.4561331,22.5505198 C14.4561331,20.8365904 15.8482328,19.4444906 17.5621622,19.4444906 C19.2760915,19.4444906 20.6681913,20.8365904 20.6681913,22.5505198 C20.6681913,24.2644491 19.2760915,25.6565489 17.5621622,25.6565489 Z" id="Shape"></path>
            <path d="M6.2008316,9.04864865 L6.2008316,1.01039501 C6.2008316,0.449064449 5.75176715,0 5.19043659,0 C4.62910603,0 4.18004158,0.449064449 4.18004158,1.01039501 L4.18004158,9.04864865 C1.83742204,9.52016632 0.0636174636,11.5933472 0.0636174636,14.0781705 C0.0636174636,16.5629938 1.83742204,18.6361746 4.18004158,19.1076923 L4.18004158,34.9297297 C4.18004158,35.4910603 4.62910603,35.9401247 5.19043659,35.9401247 C5.75176715,35.9401247 6.2008316,35.4910603 6.2008316,34.9297297 L6.2008316,19.1002079 C8.54345114,18.6286902 10.3172557,16.5555094 10.3172557,14.0706861 C10.3172557,11.5858628 8.54345114,9.52016632 6.2008316,9.04864865 Z M5.19043659,17.1841996 C3.47650728,17.1841996 2.08440748,15.7920998 2.08440748,14.0781705 C2.08440748,12.3642412 3.47650728,10.9721414 5.19043659,10.9721414 C6.9043659,10.9721414 8.2964657,12.3642412 8.2964657,14.0781705 C8.2964657,15.7920998 6.8968815,17.1841996 5.19043659,17.1841996 Z" id="Shape"></path>
            <path d="M30.8694387,9.04864865 L30.8694387,1.01039501 C30.8694387,0.449064449 30.4203742,0 29.8590437,0 C29.2977131,0 28.8486486,0.449064449 28.8486486,1.01039501 L28.8486486,9.04864865 C26.5060291,9.52016632 24.7322245,11.5933472 24.7322245,14.0781705 C24.7322245,16.5629938 26.5060291,18.6361746 28.8486486,19.1076923 L28.8486486,34.9372141 C28.8486486,35.4985447 29.2977131,35.9476091 29.8590437,35.9476091 C30.4203742,35.9476091 30.8694387,35.4985447 30.8694387,34.9372141 L30.8694387,19.1002079 C33.2120582,18.6286902 34.9858628,16.5555094 34.9858628,14.0706861 C34.9858628,11.5858628 33.2195426,9.52016632 30.8694387,9.04864865 Z M29.8590437,17.1841996 C28.1451143,17.1841996 26.7530146,15.7920998 26.7530146,14.0781705 C26.7530146,12.3642412 28.1451143,10.9721414 29.8590437,10.9721414 C31.572973,10.9721414 32.9650728,12.3642412 32.9650728,14.0781705 C32.9650728,15.7920998 31.572973,17.1841996 29.8590437,17.1841996 Z" id="Shape"></path>
        </g>
    </g>
</svg>