<svg xmlns="http://www.w3.org/2000/svg" viewBox="0 0 249.96 250.57"><defs><style>.cls-1{fill:#d0d0d0;}.cls-2{fill:#ffb96e;stroke:#d39359;}.cls-10,.cls-11,.cls-12,.cls-13,.cls-14,.cls-2,.cls-5,.cls-6,.cls-7,.cls-9{stroke-miterlimit:10;}.cls-3{font-size:18px;fill:#d39053;font-family:AvenirNext-Bold, Avenir Next;font-weight:700;letter-spacing:0.1em;}.cls-4{letter-spacing:0.07em;}.cls-5{fill:#d5d5d5;}.cls-5,.cls-6,.cls-7{stroke:#959595;}.cls-6,.cls-7{fill:none;}.cls-7{stroke-width:2px;}.cls-8{fill:#959595;}.cls-9{fill:#5ebfdd;stroke:#449db2;}.cls-10{fill:#e5ddcb;stroke:#a89b85;}.cls-11{fill:#b33a7b;stroke:#892b61;}.cls-12{fill:#656565;}.cls-12,.cls-13{stroke:#656565;}.cls-13{fill:#b5b5b5;}.cls-14{fill:#f5f5f5;stroke:#a5a5a5;}</style></defs><title>Asset 10</title><g id="Layer_2" data-name="Layer 2"><g id="Layer_4" data-name="Layer 4"><path class="cls-1" d="M82.48,62.11H197.12A7.88,7.88,0,0,1,205,70V242.71a7.88,7.88,0,0,1-7.85,7.85H82.48Z"/><path class="cls-2" d="M80.48,60.11H195.12A7.88,7.88,0,0,1,203,68V240.71a7.88,7.88,0,0,1-7.85,7.85H80.48Z"/><text class="cls-3" transform="translate(107.05 109.46)">N<tspan class="cls-4" x="16.02" y="0">O</tspan><tspan x="32.6" y="0">TES</tspan></text></g><g id="Layer_6" data-name="Layer 6"><rect class="cls-1" x="229.35" y="85.74" width="10" height="160" transform="translate(-19.99 32.69) rotate(-7.65)"/><rect class="cls-5" x="228.1" y="83.89" width="10" height="160" transform="translate(-19.75 32.5) rotate(-7.65)"/><line class="cls-6" x1="218.95" y1="96.17" x2="228.86" y2="94.84"/><polygon class="cls-7" points="232.72 123.58 222.81 124.92 222.81 124.92 232.72 123.58 232.72 123.58"/><polyline class="cls-6" points="229.56 96.26 233.03 95.8 236.76 123.55"/><rect class="cls-8" x="234.86" y="117.64" width="2" height="6" transform="matrix(0.99, -0.13, 0.13, 0.99, -13.97, 32.49)"/><rect class="cls-1" x="241.21" y="244.02" width="8" height="5" transform="translate(-30.65 34.85) rotate(-7.65)"/><rect class="cls-8" x="240.08" y="243.16" width="8" height="5" transform="translate(-30.54 34.69) rotate(-7.65)"/></g><g id="Layer_7" data-name="Layer 7"><polygon class="cls-1" points="13.22 128.93 1.1 137.53 5.03 123.19 13.22 128.93"/><rect class="cls-1" x="-20.51" y="64.13" width="139" height="10" transform="translate(-35.73 69.61) rotate(-55)"/><rect class="cls-1" x="83" y="11.93" width="10" height="3" transform="matrix(0.82, 0.57, -0.57, 0.82, 23.61, -48.04)"/><path class="cls-1" d="M84.76,9.33l4-5.73a4,4,0,0,1,5.57-1L96,3.76a4,4,0,0,1,1,5.57l-4,5.73Z"/><rect class="cls-9" x="-20.75" y="62.73" width="139" height="10" transform="translate(-34.7 68.81) rotate(-55)"/><polygon class="cls-10" points="12.98 127.53 0.85 136.13 4.79 121.8 12.98 127.53"/><path class="cls-11" d="M84.51,7.94l4-5.73a4,4,0,0,1,5.57-1l1.64,1.15a4,4,0,0,1,1,5.57l-4,5.73Z"/><polygon class="cls-12" points="2.29 131.47 4.74 133.19 1.11 135.77 2.29 131.47"/><rect class="cls-13" x="82.75" y="10.53" width="10" height="3" transform="matrix(0.82, 0.57, -0.57, 0.82, 22.77, -48.16)"/></g><g id="Layer_8" data-name="Layer 8"><path class="cls-1" d="M18.23,239.94l6.19-70.73a4,4,0,0,1,4.33-3.64l26.9,2.35a4,4,0,0,1,3.64,4.33L53.1,243Z"/><path class="cls-14" d="M17.32,238.86l6.19-70.73a4,4,0,0,1,4.33-3.64l26.9,2.35a4,4,0,0,1,3.64,4.33l-6.19,70.73Z"/><rect class="cls-10" x="19.82" y="193.5" width="35" height="35" transform="translate(18.53 -2.45) rotate(5)"/></g></g></svg>