<?xml version="1.0" encoding="UTF-8"?>
<svg width="372px" height="380px" viewBox="0 0 372 380" version="1.1" xmlns="http://www.w3.org/2000/svg" xmlns:xlink="http://www.w3.org/1999/xlink">
    <!-- Generator: Sketch 51.3 (57544) - http://www.bohemiancoding.com/sketch -->
    <title>succulent</title>
    <desc>Created with Sketch.</desc>
    <defs>
        <filter x="-2.8%" y="-2.8%" width="107.8%" height="110.0%" filterUnits="objectBoundingBox" id="filter-1">
            <feOffset dx="8" dy="16" in="SourceAlpha" result="shadowOffsetOuter1"></feOffset>
            <feColorMatrix values="0 0 0 0 0   0 0 0 0 0   0 0 0 0 0  0 0 0 0.16 0" type="matrix" in="shadowOffsetOuter1" result="shadowMatrixOuter1"></feColorMatrix>
            <feMerge>
                <feMergeNode in="shadowMatrixOuter1"></feMergeNode>
                <feMergeNode in="SourceGraphic"></feMergeNode>
            </feMerge>
        </filter>
        <linearGradient x1="50%" y1="50%" x2="50%" y2="100%" id="linearGradient-2">
            <stop stop-color="#7B9B70" offset="0%"></stop>
            <stop stop-color="#3D5635" offset="100%"></stop>
        </linearGradient>
        <linearGradient x1="50%" y1="42.4239246%" x2="50%" y2="100%" id="linearGradient-3">
            <stop stop-color="#8AAB7E" offset="0%"></stop>
            <stop stop-color="#5D7655" offset="100%"></stop>
        </linearGradient>
        <linearGradient x1="50%" y1="11.99624%" x2="50%" y2="100%" id="linearGradient-4">
            <stop stop-color="#AFC6A3" offset="0%"></stop>
            <stop stop-color="#8AAB7E" offset="100%"></stop>
        </linearGradient>
    </defs>
    <g id="Page-1" stroke="none" stroke-width="1" fill="none" fill-rule="evenodd">
        <g id="gro-appreciation-tea-2018" transform="translate(-40.000000, -35.000000)">
            <g id="succulent" filter="url(#filter-1)" transform="translate(42.000000, 37.000000)">
                <circle id="Oval" stroke="#8C7B75" stroke-width="3.15" fill="#D7CCC8" cx="180" cy="180" r="180"></circle>
                <circle id="Oval" stroke="#725B53" stroke-width="3" fill="#A1887F" cx="178.536585" cy="180.487805" r="154.146341"></circle>
                <g id="leaf" transform="translate(122.926829, 14.634146)" stroke-width="3">
                    <path d="M94.2584683,29.3779405 C77.6395615,18.508369 64.4314542,16.1303563 54.6341463,0 C44.8368385,16.1303563 31.6287312,18.508369 15.0098244,29.3779405 C-9.91853577,45.6822977 -8.29277315,111.219512 54.6341463,111.219512 C117.561066,111.219512 119.186828,45.6822977 94.2584683,29.3779405 Z" id="Path" stroke="#AFC5B9" fill="url(#linearGradient-2)" transform="translate(54.634146, 55.609756) scale(-1, 1) translate(-54.634146, -55.609756) "></path>
                    <path d="M18.1301362,43.5666145 C19.0041616,41.5297247 21.716838,39.4549182 26.2681653,37.3421948" id="Path-2" stroke="#FFFFFF" opacity="0.48"></path>
                    <path d="M7.98972287,61.3924628 C9.37176727,58.1716501 13.6611611,54.8908818 20.8579045,51.5501579" id="Path-2" stroke="#FFFFFF" opacity="0.16" transform="translate(14.423814, 56.471310) rotate(-45.000000) translate(-14.423814, -56.471310) "></path>
                    <path d="M31.9069897,36.845519 C34.4523209,34.6287451 38.0476611,30.8928244 42.6930105,25.6377569" id="Path-2" stroke="#FFFFFF" opacity="0.16" transform="translate(37.300000, 31.241638) rotate(20.000000) translate(-37.300000, -31.241638) "></path>
                </g>
                <g id="leaf-3" transform="translate(67.317073, 179.512195) rotate(-90.000000) translate(-67.317073, -179.512195) translate(12.682927, 123.902439)" stroke-width="3">
                    <path d="M94.2584683,29.3779405 C77.6395615,18.508369 64.4314542,16.1303563 54.6341463,0 C44.8368385,16.1303563 31.6287312,18.508369 15.0098244,29.3779405 C-9.91853577,45.6822977 -8.29277315,111.219512 54.6341463,111.219512 C117.561066,111.219512 119.186828,45.6822977 94.2584683,29.3779405 Z" id="Path" stroke="#AFC5B9" fill="url(#linearGradient-2)" transform="translate(54.634146, 55.609756) scale(-1, 1) translate(-54.634146, -55.609756) "></path>
                    <path d="M18.1301362,43.5666145 C19.0041616,41.5297247 21.716838,39.4549182 26.2681653,37.3421948" id="Path-2" stroke="#FFFFFF" opacity="0.48"></path>
                    <path d="M7.98972287,61.3924628 C9.37176727,58.1716501 13.6611611,54.8908818 20.8579045,51.5501579" id="Path-2" stroke="#FFFFFF" opacity="0.16" transform="translate(14.423814, 56.471310) rotate(-45.000000) translate(-14.423814, -56.471310) "></path>
                    <path d="M31.9069897,36.845519 C34.4523209,34.6287451 38.0476611,30.8928244 42.6930105,25.6377569" id="Path-2" stroke="#FFFFFF" opacity="0.16" transform="translate(37.300000, 31.241638) rotate(20.000000) translate(-37.300000, -31.241638) "></path>
                </g>
                <g id="leaf-2" transform="translate(100.487805, 108.292683) rotate(-45.000000) translate(-100.487805, -108.292683) translate(45.853659, 52.682927)" stroke-width="3">
                    <path d="M94.2584683,29.3779405 C77.6395615,18.508369 64.4314542,16.1303563 54.6341463,0 C44.8368385,16.1303563 31.6287312,18.508369 15.0098244,29.3779405 C-9.91853577,45.6822977 -8.29277315,111.219512 54.6341463,111.219512 C117.561066,111.219512 119.186828,45.6822977 94.2584683,29.3779405 Z" id="Path" stroke="#AFC5B9" fill="url(#linearGradient-2)" transform="translate(54.634146, 55.609756) scale(-1, 1) translate(-54.634146, -55.609756) "></path>
                    <path d="M18.1301362,43.5666145 C19.0041616,41.5297247 21.716838,39.4549182 26.2681653,37.3421948" id="Path-2" stroke="#FFFFFF" opacity="0.48"></path>
                    <path d="M7.98972287,61.3924628 C9.37176727,58.1716501 13.6611611,54.8908818 20.8579045,51.5501579" id="Path-2" stroke="#FFFFFF" opacity="0.16" transform="translate(14.423814, 56.471310) rotate(-45.000000) translate(-14.423814, -56.471310) "></path>
                    <path d="M31.9069897,36.845519 C34.4523209,34.6287451 38.0476611,30.8928244 42.6930105,25.6377569" id="Path-2" stroke="#FFFFFF" opacity="0.16" transform="translate(37.300000, 31.241638) rotate(20.000000) translate(-37.300000, -31.241638) "></path>
                </g>
                <g id="leaf-5" transform="translate(177.560976, 289.756098) rotate(-180.000000) translate(-177.560976, -289.756098) translate(122.926829, 234.146341)" stroke-width="3">
                    <path d="M94.2584683,29.3779405 C77.6395615,18.508369 64.4314542,16.1303563 54.6341463,0 C44.8368385,16.1303563 31.6287312,18.508369 15.0098244,29.3779405 C-9.91853577,45.6822977 -8.29277315,111.219512 54.6341463,111.219512 C117.561066,111.219512 119.186828,45.6822977 94.2584683,29.3779405 Z" id="Path" stroke="#AFC5B9" fill="url(#linearGradient-2)" transform="translate(54.634146, 55.609756) scale(-1, 1) translate(-54.634146, -55.609756) "></path>
                    <path d="M18.1301362,43.5666145 C19.0041616,41.5297247 21.716838,39.4549182 26.2681653,37.3421948" id="Path-2" stroke="#FFFFFF" opacity="0.48"></path>
                    <path d="M7.98972287,61.3924628 C9.37176727,58.1716501 13.6611611,54.8908818 20.8579045,51.5501579" id="Path-2" stroke="#FFFFFF" opacity="0.16" transform="translate(14.423814, 56.471310) rotate(-45.000000) translate(-14.423814, -56.471310) "></path>
                    <path d="M31.9069897,36.845519 C34.4523209,34.6287451 38.0476611,30.8928244 42.6930105,25.6377569" id="Path-2" stroke="#FFFFFF" opacity="0.16" transform="translate(37.300000, 31.241638) rotate(20.000000) translate(-37.300000, -31.241638) "></path>
                </g>
                <g id="leaf-7" transform="translate(287.804878, 185.365854) rotate(-270.000000) translate(-287.804878, -185.365854) translate(233.170732, 129.756098)" stroke-width="3">
                    <path d="M94.2584683,29.3779405 C77.6395615,18.508369 64.4314542,16.1303563 54.6341463,0 C44.8368385,16.1303563 31.6287312,18.508369 15.0098244,29.3779405 C-9.91853577,45.6822977 -8.29277315,111.219512 54.6341463,111.219512 C117.561066,111.219512 119.186828,45.6822977 94.2584683,29.3779405 Z" id="Path" stroke="#AFC5B9" fill="url(#linearGradient-2)" transform="translate(54.634146, 55.609756) scale(-1, 1) translate(-54.634146, -55.609756) "></path>
                    <path d="M18.1301362,43.5666145 C19.0041616,41.5297247 21.716838,39.4549182 26.2681653,37.3421948" id="Path-2" stroke="#FFFFFF" opacity="0.48"></path>
                    <path d="M7.98972287,61.3924628 C9.37176727,58.1716501 13.6611611,54.8908818 20.8579045,51.5501579" id="Path-2" stroke="#FFFFFF" opacity="0.16" transform="translate(14.423814, 56.471310) rotate(-45.000000) translate(-14.423814, -56.471310) "></path>
                    <path d="M31.9069897,36.845519 C34.4523209,34.6287451 38.0476611,30.8928244 42.6930105,25.6377569" id="Path-2" stroke="#FFFFFF" opacity="0.16" transform="translate(37.300000, 31.241638) rotate(20.000000) translate(-37.300000, -31.241638) "></path>
                </g>
                <g id="leaf-8" transform="translate(255.609756, 108.292683) rotate(-315.000000) translate(-255.609756, -108.292683) translate(200.975610, 52.682927)" stroke-width="3">
                    <path d="M94.2584683,29.3779405 C77.6395615,18.508369 64.4314542,16.1303563 54.6341463,0 C44.8368385,16.1303563 31.6287312,18.508369 15.0098244,29.3779405 C-9.91853577,45.6822977 -8.29277315,111.219512 54.6341463,111.219512 C117.561066,111.219512 119.186828,45.6822977 94.2584683,29.3779405 Z" id="Path" stroke="#AFC5B9" fill="url(#linearGradient-2)" transform="translate(54.634146, 55.609756) scale(-1, 1) translate(-54.634146, -55.609756) "></path>
                    <path d="M18.1301362,43.5666145 C19.0041616,41.5297247 21.716838,39.4549182 26.2681653,37.3421948" id="Path-2" stroke="#FFFFFF" opacity="0.48"></path>
                    <path d="M7.98972287,61.3924628 C9.37176727,58.1716501 13.6611611,54.8908818 20.8579045,51.5501579" id="Path-2" stroke="#FFFFFF" opacity="0.16" transform="translate(14.423814, 56.471310) rotate(-45.000000) translate(-14.423814, -56.471310) "></path>
                    <path d="M31.9069897,36.845519 C34.4523209,34.6287451 38.0476611,30.8928244 42.6930105,25.6377569" id="Path-2" stroke="#FFFFFF" opacity="0.16" transform="translate(37.300000, 31.241638) rotate(20.000000) translate(-37.300000, -31.241638) "></path>
                </g>
                <g id="leaf-6" transform="translate(256.585366, 252.682927) rotate(-255.000000) translate(-256.585366, -252.682927) translate(201.951220, 197.073171)" stroke-width="3">
                    <path d="M94.2584683,29.3779405 C77.6395615,18.508369 64.4314542,16.1303563 54.6341463,0 C44.8368385,16.1303563 31.6287312,18.508369 15.0098244,29.3779405 C-9.91853577,45.6822977 -8.29277315,111.219512 54.6341463,111.219512 C117.561066,111.219512 119.186828,45.6822977 94.2584683,29.3779405 Z" id="Path" stroke="#AFC5B9" fill="url(#linearGradient-2)" transform="translate(54.634146, 55.609756) scale(-1, 1) translate(-54.634146, -55.609756) "></path>
                    <path d="M18.1301362,43.5666145 C19.0041616,41.5297247 21.716838,39.4549182 26.2681653,37.3421948" id="Path-2" stroke="#FFFFFF" opacity="0.48"></path>
                    <path d="M7.98972287,61.3924628 C9.37176727,58.1716501 13.6611611,54.8908818 20.8579045,51.5501579" id="Path-2" stroke="#FFFFFF" opacity="0.16" transform="translate(14.423814, 56.471310) rotate(-45.000000) translate(-14.423814, -56.471310) "></path>
                    <path d="M31.9069897,36.845519 C34.4523209,34.6287451 38.0476611,30.8928244 42.6930105,25.6377569" id="Path-2" stroke="#FFFFFF" opacity="0.16" transform="translate(37.300000, 31.241638) rotate(20.000000) translate(-37.300000, -31.241638) "></path>
                </g>
                <g id="leaf-4" transform="translate(100.487805, 252.682927) rotate(-105.000000) translate(-100.487805, -252.682927) translate(45.853659, 197.073171)" stroke-width="3">
                    <path d="M94.2584683,29.3779405 C77.6395615,18.508369 64.4314542,16.1303563 54.6341463,0 C44.8368385,16.1303563 31.6287312,18.508369 15.0098244,29.3779405 C-9.91853577,45.6822977 -8.29277315,111.219512 54.6341463,111.219512 C117.561066,111.219512 119.186828,45.6822977 94.2584683,29.3779405 Z" id="Path" stroke="#AFC5B9" fill="url(#linearGradient-2)" transform="translate(54.634146, 55.609756) scale(-1, 1) translate(-54.634146, -55.609756) "></path>
                    <path d="M18.1301362,43.5666145 C19.0041616,41.5297247 21.716838,39.4549182 26.2681653,37.3421948" id="Path-2" stroke="#FFFFFF" opacity="0.48"></path>
                    <path d="M7.98972287,61.3924628 C9.37176727,58.1716501 13.6611611,54.8908818 20.8579045,51.5501579" id="Path-2" stroke="#FFFFFF" opacity="0.16" transform="translate(14.423814, 56.471310) rotate(-45.000000) translate(-14.423814, -56.471310) "></path>
                    <path d="M31.9069897,36.845519 C34.4523209,34.6287451 38.0476611,30.8928244 42.6930105,25.6377569" id="Path-2" stroke="#FFFFFF" opacity="0.16" transform="translate(37.300000, 31.241638) rotate(20.000000) translate(-37.300000, -31.241638) "></path>
                </g>
                <g id="leaf" transform="translate(138.536585, 59.512195)" stroke-width="3">
                    <path d="M68.1690708,21.3892023 C56.15004,13.4753915 46.5977481,11.7440314 39.5121951,0 C32.4266421,11.7440314 22.8743502,13.4753915 10.8553194,21.3892023 C-7.17322676,33.2599185 -5.99745201,80.9756098 39.5121951,80.9756098 C85.0218423,80.9756098 86.197617,33.2599185 68.1690708,21.3892023 Z" id="Path" stroke="#C3D8BC" fill="#8AAB7E" transform="translate(39.512195, 40.487805) scale(-1, 1) translate(-39.512195, -40.487805) "></path>
                    <path d="M13.1119735,31.7195527 C13.7440812,30.236554 15.7059275,28.7259492 18.9975124,27.1877383" id="Path-2" stroke="#FFFFFF" opacity="0.48"></path>
                    <path d="M5.77828172,44.6980212 C6.77779597,42.3530435 9.8799469,39.9644139 15.0847345,37.5321325" id="Path-2" stroke="#FFFFFF" opacity="0.16" transform="translate(10.431508, 41.115077) rotate(-45.000000) translate(-10.431508, -41.115077) "></path>
                    <path d="M23.0755908,26.8261235 C24.9164106,25.2121565 27.5166121,22.4921441 30.8761951,18.6660862" id="Path-2" stroke="#FFFFFF" opacity="0.16" transform="translate(26.975893, 22.746105) rotate(20.000000) translate(-26.975893, -22.746105) "></path>
                </g>
                <g id="leaf-3" transform="translate(100.000000, 180.000000) rotate(-90.000000) translate(-100.000000, -180.000000) translate(60.487805, 139.512195)" stroke-width="3">
                    <path d="M68.1690708,21.3892023 C56.15004,13.4753915 46.5977481,11.7440314 39.5121951,0 C32.4266421,11.7440314 22.8743502,13.4753915 10.8553194,21.3892023 C-7.17322676,33.2599185 -5.99745201,80.9756098 39.5121951,80.9756098 C85.0218423,80.9756098 86.197617,33.2599185 68.1690708,21.3892023 Z" id="Path" stroke="#C3D8BC" fill="#8AAB7E" transform="translate(39.512195, 40.487805) scale(-1, 1) translate(-39.512195, -40.487805) "></path>
                    <path d="M13.1119735,31.7195527 C13.7440812,30.236554 15.7059275,28.7259492 18.9975124,27.1877383" id="Path-2" stroke="#FFFFFF" opacity="0.48"></path>
                    <path d="M5.77828172,44.6980212 C6.77779597,42.3530435 9.8799469,39.9644139 15.0847345,37.5321325" id="Path-2" stroke="#FFFFFF" opacity="0.16" transform="translate(10.431508, 41.115077) rotate(-45.000000) translate(-10.431508, -41.115077) "></path>
                    <path d="M23.0755908,26.8261235 C24.9164106,25.2121565 27.5166121,22.4921441 30.8761951,18.6660862" id="Path-2" stroke="#FFFFFF" opacity="0.16" transform="translate(26.975893, 22.746105) rotate(20.000000) translate(-26.975893, -22.746105) "></path>
                </g>
                <g id="leaf-2" transform="translate(124.390244, 129.756098) rotate(-45.000000) translate(-124.390244, -129.756098) translate(84.878049, 88.780488)" stroke-width="3">
                    <path d="M68.1690708,21.4766246 C56.15004,13.5304683 46.5977481,11.7920317 39.5121951,0 C32.4266421,11.7920317 22.8743502,13.5304683 10.8553194,21.4766246 C-7.17322676,33.395859 -5.99745201,81.3065745 39.5121951,81.3065745 C85.0218423,81.3065745 86.197617,33.395859 68.1690708,21.4766246 Z" id="Path" stroke="#C3D8BC" fill="url(#linearGradient-3)" transform="translate(39.512195, 40.653287) scale(-1, 1) translate(-39.512195, -40.653287) "></path>
                    <path d="M13.1119735,31.8491973 C13.7440812,30.3601373 15.7059275,28.8433583 18.9975124,27.2988605" id="Path-2" stroke="#FFFFFF" opacity="0.48"></path>
                    <path d="M5.77828172,44.8807116 C6.77779597,42.5261495 9.8799469,40.1277571 15.0847345,37.6855344" id="Path-2" stroke="#FFFFFF" opacity="0.16" transform="translate(10.431508, 41.283123) rotate(-45.000000) translate(-10.431508, -41.283123) "></path>
                    <path d="M23.0755908,26.9357676 C24.9164106,25.315204 27.5166121,22.5840743 30.8761951,18.7423785" id="Path-2" stroke="#FFFFFF" opacity="0.16" transform="translate(26.975893, 22.839073) rotate(20.000000) translate(-26.975893, -22.839073) "></path>
                </g>
                <g id="leaf-5" transform="translate(178.048780, 265.853659) rotate(-180.000000) translate(-178.048780, -265.853659) translate(138.536585, 225.365854)" stroke-width="3">
                    <path d="M68.1690708,21.3892023 C56.15004,13.4753915 46.5977481,11.7440314 39.5121951,0 C32.4266421,11.7440314 22.8743502,13.4753915 10.8553194,21.3892023 C-7.17322676,33.2599185 -5.99745201,80.9756098 39.5121951,80.9756098 C85.0218423,80.9756098 86.197617,33.2599185 68.1690708,21.3892023 Z" id="Path" stroke="#C3D8BC" fill="#8AAB7E" transform="translate(39.512195, 40.487805) scale(-1, 1) translate(-39.512195, -40.487805) "></path>
                    <path d="M13.1119735,31.7195527 C13.7440812,30.236554 15.7059275,28.7259492 18.9975124,27.1877383" id="Path-2" stroke="#FFFFFF" opacity="0.48"></path>
                    <path d="M5.77828172,44.6980212 C6.77779597,42.3530435 9.8799469,39.9644139 15.0847345,37.5321325" id="Path-2" stroke="#FFFFFF" opacity="0.16" transform="translate(10.431508, 41.115077) rotate(-45.000000) translate(-10.431508, -41.115077) "></path>
                    <path d="M23.0755908,26.8261235 C24.9164106,25.2121565 27.5166121,22.4921441 30.8761951,18.6660862" id="Path-2" stroke="#FFFFFF" opacity="0.16" transform="translate(26.975893, 22.746105) rotate(20.000000) translate(-26.975893, -22.746105) "></path>
                </g>
                <g id="leaf-7" transform="translate(256.097561, 185.853659) rotate(-270.000000) translate(-256.097561, -185.853659) translate(216.585366, 145.365854)" stroke-width="3">
                    <path d="M68.1690708,21.3892023 C56.15004,13.4753915 46.5977481,11.7440314 39.5121951,0 C32.4266421,11.7440314 22.8743502,13.4753915 10.8553194,21.3892023 C-7.17322676,33.2599185 -5.99745201,80.9756098 39.5121951,80.9756098 C85.0218423,80.9756098 86.197617,33.2599185 68.1690708,21.3892023 Z" id="Path" stroke="#C3D8BC" fill="#8AAB7E" transform="translate(39.512195, 40.487805) scale(-1, 1) translate(-39.512195, -40.487805) "></path>
                    <path d="M13.1119735,31.7195527 C13.7440812,30.236554 15.7059275,28.7259492 18.9975124,27.1877383" id="Path-2" stroke="#FFFFFF" opacity="0.48"></path>
                    <path d="M5.77828172,44.6980212 C6.77779597,42.3530435 9.8799469,39.9644139 15.0847345,37.5321325" id="Path-2" stroke="#FFFFFF" opacity="0.16" transform="translate(10.431508, 41.115077) rotate(-45.000000) translate(-10.431508, -41.115077) "></path>
                    <path d="M23.0755908,26.8261235 C24.9164106,25.2121565 27.5166121,22.4921441 30.8761951,18.6660862" id="Path-2" stroke="#FFFFFF" opacity="0.16" transform="translate(26.975893, 22.746105) rotate(20.000000) translate(-26.975893, -22.746105) "></path>
                </g>
                <g id="leaf-8" transform="translate(231.707317, 129.756098) rotate(-315.000000) translate(-231.707317, -129.756098) translate(192.195122, 88.780488)" stroke-width="3">
                    <path d="M68.1690708,21.4766246 C56.15004,13.5304683 46.5977481,11.7920317 39.5121951,0 C32.4266421,11.7920317 22.8743502,13.5304683 10.8553194,21.4766246 C-7.17322676,33.395859 -5.99745201,81.3065745 39.5121951,81.3065745 C85.0218423,81.3065745 86.197617,33.395859 68.1690708,21.4766246 Z" id="Path" stroke="#C3D8BC" fill="url(#linearGradient-3)" transform="translate(39.512195, 40.653287) scale(-1, 1) translate(-39.512195, -40.653287) "></path>
                    <path d="M13.1119735,31.8491973 C13.7440812,30.3601373 15.7059275,28.8433583 18.9975124,27.2988605" id="Path-2" stroke="#FFFFFF" opacity="0.48"></path>
                    <path d="M5.77828172,44.8807116 C6.77779597,42.5261495 9.8799469,40.1277571 15.0847345,37.6855344" id="Path-2" stroke="#FFFFFF" opacity="0.16" transform="translate(10.431508, 41.283123) rotate(-45.000000) translate(-10.431508, -41.283123) "></path>
                    <path d="M23.0755908,26.9357676 C24.9164106,25.315204 27.5166121,22.5840743 30.8761951,18.7423785" id="Path-2" stroke="#FFFFFF" opacity="0.16" transform="translate(26.975893, 22.839073) rotate(20.000000) translate(-26.975893, -22.839073) "></path>
                </g>
                <g id="leaf-6" transform="translate(229.756098, 240.000000) rotate(-255.000000) translate(-229.756098, -240.000000) translate(190.243902, 199.024390)" stroke-width="3">
                    <path d="M68.1690708,21.4766246 C56.15004,13.5304683 46.5977481,11.7920317 39.5121951,0 C32.4266421,11.7920317 22.8743502,13.5304683 10.8553194,21.4766246 C-7.17322676,33.395859 -5.99745201,81.3065745 39.5121951,81.3065745 C85.0218423,81.3065745 86.197617,33.395859 68.1690708,21.4766246 Z" id="Path" stroke="#C3D8BC" fill="url(#linearGradient-3)" transform="translate(39.512195, 40.653287) scale(-1, 1) translate(-39.512195, -40.653287) "></path>
                    <path d="M13.1119735,31.8491973 C13.7440812,30.3601373 15.7059275,28.8433583 18.9975124,27.2988605" id="Path-2" stroke="#FFFFFF" opacity="0.48"></path>
                    <path d="M5.77828172,44.8807116 C6.77779597,42.5261495 9.8799469,40.1277571 15.0847345,37.6855344" id="Path-2" stroke="#FFFFFF" opacity="0.16" transform="translate(10.431508, 41.283123) rotate(-45.000000) translate(-10.431508, -41.283123) "></path>
                    <path d="M23.0755908,26.9357676 C24.9164106,25.315204 27.5166121,22.5840743 30.8761951,18.7423785" id="Path-2" stroke="#FFFFFF" opacity="0.16" transform="translate(26.975893, 22.839073) rotate(20.000000) translate(-26.975893, -22.839073) "></path>
                </g>
                <g id="leaf-4" transform="translate(124.390244, 240.000000) rotate(-105.000000) translate(-124.390244, -240.000000) translate(84.878049, 199.024390)" stroke-width="3">
                    <path d="M68.1690708,21.4766246 C56.15004,13.5304683 46.5977481,11.7920317 39.5121951,0 C32.4266421,11.7920317 22.8743502,13.5304683 10.8553194,21.4766246 C-7.17322676,33.395859 -5.99745201,81.3065745 39.5121951,81.3065745 C85.0218423,81.3065745 86.197617,33.395859 68.1690708,21.4766246 Z" id="Path" stroke="#C3D8BC" fill="url(#linearGradient-3)" transform="translate(39.512195, 40.653287) scale(-1, 1) translate(-39.512195, -40.653287) "></path>
                    <path d="M13.1119735,31.8491973 C13.7440812,30.3601373 15.7059275,28.8433583 18.9975124,27.2988605" id="Path-2" stroke="#FFFFFF" opacity="0.48"></path>
                    <path d="M5.77828172,44.8807116 C6.77779597,42.5261495 9.8799469,40.1277571 15.0847345,37.6855344" id="Path-2" stroke="#FFFFFF" opacity="0.16" transform="translate(10.431508, 41.283123) rotate(-45.000000) translate(-10.431508, -41.283123) "></path>
                    <path d="M23.0755908,26.9357676 C24.9164106,25.315204 27.5166121,22.5840743 30.8761951,18.7423785" id="Path-2" stroke="#FFFFFF" opacity="0.16" transform="translate(26.975893, 22.839073) rotate(20.000000) translate(-26.975893, -22.839073) "></path>
                </g>
                <g id="leaf" transform="translate(138.536585, 100.487805)" stroke-width="3">
                    <path d="M68.1690708,21.4766246 C56.15004,13.5304683 46.5977481,11.7920317 39.5121951,0 C32.4266421,11.7920317 22.8743502,13.5304683 10.8553194,21.4766246 C-7.17322676,33.395859 -5.99745201,81.3065745 39.5121951,81.3065745 C85.0218423,81.3065745 86.197617,33.395859 68.1690708,21.4766246 Z" id="Path" stroke="#D5E7D0" fill="url(#linearGradient-4)" transform="translate(39.512195, 40.653287) scale(-1, 1) translate(-39.512195, -40.653287) "></path>
                    <path d="M13.1119735,31.8491973 C13.7440812,30.3601373 15.7059275,28.8433583 18.9975124,27.2988605" id="Path-2" stroke="#FFFFFF" opacity="0.48"></path>
                    <path d="M5.77828172,44.8807116 C6.77779597,42.5261495 9.8799469,40.1277571 15.0847345,37.6855344" id="Path-2" stroke="#FFFFFF" opacity="0.16" transform="translate(10.431508, 41.283123) rotate(-45.000000) translate(-10.431508, -41.283123) "></path>
                    <path d="M23.0755908,26.9357676 C24.9164106,25.315204 27.5166121,22.5840743 30.8761951,18.7423785" id="Path-2" stroke="#FFFFFF" opacity="0.16" transform="translate(26.975893, 22.839073) rotate(20.000000) translate(-26.975893, -22.839073) "></path>
                </g>
                <g id="leaf" transform="translate(178.048780, 221.463415) rotate(-180.000000) translate(-178.048780, -221.463415) translate(138.536585, 180.487805)" stroke-width="3">
                    <path d="M68.1690708,21.4766246 C56.15004,13.5304683 46.5977481,11.7920317 39.5121951,0 C32.4266421,11.7920317 22.8743502,13.5304683 10.8553194,21.4766246 C-7.17322676,33.395859 -5.99745201,81.3065745 39.5121951,81.3065745 C85.0218423,81.3065745 86.197617,33.395859 68.1690708,21.4766246 Z" id="Path" stroke="#D5E7D0" fill="url(#linearGradient-4)" transform="translate(39.512195, 40.653287) scale(-1, 1) translate(-39.512195, -40.653287) "></path>
                    <path d="M13.1119735,31.8491973 C13.7440812,30.3601373 15.7059275,28.8433583 18.9975124,27.2988605" id="Path-2" stroke="#FFFFFF" opacity="0.48"></path>
                    <path d="M5.77828172,44.8807116 C6.77779597,42.5261495 9.8799469,40.1277571 15.0847345,37.6855344" id="Path-2" stroke="#FFFFFF" opacity="0.16" transform="translate(10.431508, 41.283123) rotate(-45.000000) translate(-10.431508, -41.283123) "></path>
                    <path d="M23.0755908,26.9357676 C24.9164106,25.315204 27.5166121,22.5840743 30.8761951,18.7423785" id="Path-2" stroke="#FFFFFF" opacity="0.16" transform="translate(26.975893, 22.839073) rotate(20.000000) translate(-26.975893, -22.839073) "></path>
                </g>
                <g id="leaf" transform="translate(137.073171, 180.487805) rotate(-90.000000) translate(-137.073171, -180.487805) translate(97.560976, 139.512195)" stroke-width="3">
                    <path d="M68.1690708,21.4766246 C56.15004,13.5304683 46.5977481,11.7920317 39.5121951,0 C32.4266421,11.7920317 22.8743502,13.5304683 10.8553194,21.4766246 C-7.17322676,33.395859 -5.99745201,81.3065745 39.5121951,81.3065745 C85.0218423,81.3065745 86.197617,33.395859 68.1690708,21.4766246 Z" id="Path" stroke="#D5E7D0" fill="url(#linearGradient-4)" transform="translate(39.512195, 40.653287) scale(-1, 1) translate(-39.512195, -40.653287) "></path>
                    <path d="M13.1119735,31.8491973 C13.7440812,30.3601373 15.7059275,28.8433583 18.9975124,27.2988605" id="Path-2" stroke="#FFFFFF" opacity="0.48"></path>
                    <path d="M5.77828172,44.8807116 C6.77779597,42.5261495 9.8799469,40.1277571 15.0847345,37.6855344" id="Path-2" stroke="#FFFFFF" opacity="0.16" transform="translate(10.431508, 41.283123) rotate(-45.000000) translate(-10.431508, -41.283123) "></path>
                    <path d="M23.0755908,26.9357676 C24.9164106,25.315204 27.5166121,22.5840743 30.8761951,18.7423785" id="Path-2" stroke="#FFFFFF" opacity="0.16" transform="translate(26.975893, 22.839073) rotate(20.000000) translate(-26.975893, -22.839073) "></path>
                </g>
                <g id="leaf" transform="translate(218.048780, 180.487805) rotate(-270.000000) translate(-218.048780, -180.487805) translate(178.536585, 139.512195)" stroke-width="3">
                    <path d="M68.1690708,21.4766246 C56.15004,13.5304683 46.5977481,11.7920317 39.5121951,0 C32.4266421,11.7920317 22.8743502,13.5304683 10.8553194,21.4766246 C-7.17322676,33.395859 -5.99745201,81.3065745 39.5121951,81.3065745 C85.0218423,81.3065745 86.197617,33.395859 68.1690708,21.4766246 Z" id="Path" stroke="#D5E7D0" fill="url(#linearGradient-4)" transform="translate(39.512195, 40.653287) scale(-1, 1) translate(-39.512195, -40.653287) "></path>
                    <path d="M13.1119735,31.8491973 C13.7440812,30.3601373 15.7059275,28.8433583 18.9975124,27.2988605" id="Path-2" stroke="#FFFFFF" opacity="0.48"></path>
                    <path d="M5.77828172,44.8807116 C6.77779597,42.5261495 9.8799469,40.1277571 15.0847345,37.6855344" id="Path-2" stroke="#FFFFFF" opacity="0.16" transform="translate(10.431508, 41.283123) rotate(-45.000000) translate(-10.431508, -41.283123) "></path>
                    <path d="M23.0755908,26.9357676 C24.9164106,25.315204 27.5166121,22.5840743 30.8761951,18.7423785" id="Path-2" stroke="#FFFFFF" opacity="0.16" transform="translate(26.975893, 22.839073) rotate(20.000000) translate(-26.975893, -22.839073) "></path>
                </g>
                <g id="center" transform="translate(137.560976, 134.634146)">
                    <polygon id="Path-4" stroke="#979797" fill="#8AAB7E" points="43.7763428 19.8846584 19.2359866 35.550558 23.8226908 67.7873133 56.0860596 71.7277523 68.3219708 39.8190314"></polygon>
                    <path d="M11.435037,22.1444335 C11.3864381,14.2556357 17.3551075,10.3112368 29.3410452,10.3112368 C41.3269828,10.3112368 47.3199517,14.2556357 47.3199517,22.1444335 C47.3199517,28.5946541 41.3390835,31.8197643 29.3773472,31.8197643 C17.4156108,31.8197643 11.4348408,28.5946541 11.435037,22.1444335 Z" id="Path-3" stroke="#D5E7D0" stroke-width="3" fill="#AFC6A3" transform="translate(29.377347, 21.065501) rotate(-45.000000) translate(-29.377347, -21.065501) "></path>
                    <path d="M-2.49438127,52.839491 C-2.54298021,44.9506932 3.42568917,41.0062943 15.4116269,41.0062943 C27.3975646,41.0062943 33.3905334,44.9506932 33.3905334,52.839491 C33.3905334,59.2897115 27.4096652,62.5148218 15.4479289,62.5148218 C3.48619252,62.5148218 -2.49457753,59.2897115 -2.49438127,52.839491 Z" id="Path-3" stroke="#D5E7D0" stroke-width="3" fill="#AFC6A3" transform="translate(15.447929, 51.760558) rotate(-105.000000) translate(-15.447929, -51.760558) "></path>
                    <path d="M22.9288954,77.5101847 C22.8802965,69.6213869 28.8489658,65.676988 40.8349035,65.676988 C52.8208412,65.676988 58.8138101,69.6213869 58.8138101,77.5101847 C58.8138101,83.9604052 52.8329419,87.1855155 40.8712055,87.1855155 C28.9094692,87.1855155 22.9286991,83.9604052 22.9288954,77.5101847 Z" id="Path-3" stroke="#D5E7D0" stroke-width="3" fill="#AFC6A3" transform="translate(40.871206, 76.431252) rotate(-165.000000) translate(-40.871206, -76.431252) "></path>
                    <path d="M51.2608334,58.7522077 C51.2122345,50.8634099 57.1809039,46.919011 69.1668415,46.919011 C81.1527792,46.919011 87.1457481,50.8634099 87.1457481,58.7522077 C87.1457481,65.2024283 81.1648799,68.4275386 69.2031436,68.4275386 C57.2414072,68.4275386 51.2606372,65.2024283 51.2608334,58.7522077 Z" id="Path-3" stroke="#D5E7D0" stroke-width="3" fill="#AFC6A3" transform="translate(69.203144, 57.673275) rotate(-240.000000) translate(-69.203144, -57.673275) "></path>
                    <path d="M43.5187328,26.7848178 C43.4701339,18.89602 49.4388033,14.9516211 61.424741,14.9516211 C73.4106787,14.9516211 79.4036475,18.89602 79.4036475,26.7848178 C79.4036475,33.2350384 73.4227793,36.4601487 61.461043,36.4601487 C49.4993066,36.4601487 43.5185366,33.2350384 43.5187328,26.7848178 Z" id="Path-3" stroke="#D5E7D0" stroke-width="3" fill="#AFC6A3" transform="translate(61.461043, 25.705885) rotate(-315.000000) translate(-61.461043, -25.705885) "></path>
                    <path d="M52.7200865,57.8962594 C48.0108529,55.5775442 44.0257272,52.9005293 40.7647097,49.8652146 C37.5036921,46.8298999 34.7995004,43.2805813 32.6521347,39.2172587 C37.4768987,41.0820145 41.5503713,43.5605149 44.8725524,46.6527598 C48.1947335,49.7450048 50.8105782,53.492838 52.7200865,57.8962594 Z" id="Path-5" fill="#67825E"></path>
                    <path d="M52.7200865,57.8962594 C48.0108529,55.5775442 44.0257272,52.9005293 40.7647097,49.8652146 C37.5036921,46.8298999 34.7995004,43.2805813 32.6521347,39.2172587 C37.4768987,41.0820145 41.5503713,43.5605149 44.8725524,46.6527598 C48.1947335,49.7450048 50.8105782,53.492838 52.7200865,57.8962594 Z" id="Path-5" fill="#67825E" transform="translate(42.686111, 48.556759) rotate(-90.000000) translate(-42.686111, -48.556759) "></path>
                </g>
            </g>
        </g>
    </g>
</svg>