<?xml version="1.0" encoding="UTF-8"?>
<svg width="38px" height="38px" viewBox="0 0 38 38" version="1.1" xmlns="http://www.w3.org/2000/svg" xmlns:xlink="http://www.w3.org/1999/xlink">
    <!-- Generator: Sketch 51.3 (57544) - http://www.bohemiancoding.com/sketch -->
    <title>tools</title>
    <desc>Created with Sketch.</desc>
    <defs></defs>
    <g id="Page-1" stroke="none" stroke-width="1" fill="none" fill-rule="evenodd">
        <g id="tools" transform="translate(1.000000, 1.000000)" fill-rule="nonzero" stroke="#858585" stroke-width="1.5">
            <path d="M12.0550472,19.1712936 L0.987671458,30.2387433 C-0.329174538,31.5555893 -0.329174538,33.6881643 0.987671458,35.0050103 C1.64609446,35.6634333 2.50898563,35.991499 3.37195072,35.991499 C4.23491581,35.991499 5.09780698,35.6634333 5.75622998,35.0050103 L16.8236057,23.9353429" id="Shape"></path>
            <polyline id="Shape" points="22.7809035 15.5960575 28.6483121 9.72643121 28.6483121 9.72643121 33.4685421 7.23422587 35.9920903 2.35559754 33.6393018 0.00280903491 28.7628912 2.52864887 26.2662505 7.34436961 20.4033511 13.2139959"></polyline>
            <path d="M29.7044353,22.5196632 L29.2504805,22.4747187 C28.4280246,22.4747187 27.6482218,22.6432608 26.9201643,22.9129281 L13.0841889,9.07473511 C13.3538563,8.34667762 13.5223984,7.56687474 13.5223984,6.74441889 L13.4774538,6.29046407 C13.2392772,2.78257084 10.3493717,0.00280903491 6.78086242,0.00280903491 C5.74262834,0.00280903491 4.76959343,0.256731006 3.89095688,0.676977413 L8.36959343,5.15561396 C8.60555236,5.3915729 8.76736756,5.6701848 8.87521971,5.96461602 C9.169577,6.76009035 9.01005339,7.69047228 8.36959343,8.3331499 C7.93138398,8.77135934 7.3561232,8.9915729 6.78086242,8.9915729 C6.51570431,8.9915729 6.25276386,8.93317454 6.00105955,8.83877618 C5.70670226,8.72641478 5.42801643,8.56910883 5.19205749,8.33093224 L0.713494867,3.85451335 C0.29324846,4.7331499 0.0393264887,5.7061848 0.0393264887,6.74441889 C0.0393264887,10.3129281 2.8190883,13.2028337 6.32698152,13.4410103 L6.78093634,13.4859548 C7.6033922,13.4859548 8.38319507,13.3174127 9.11125257,13.050037 L22.9449363,26.8860123 C22.6797782,27.6140698 22.5112361,28.3938727 22.5112361,29.2163285 L22.5583984,29.6702834 C22.7921396,33.1803943 25.6842628,35.9579384 29.2527721,35.9579384 C30.2910062,35.9579384 31.2662587,35.7085257 32.1426776,35.28377 L27.6640411,30.8051335 C27.4302998,30.5713922 27.2662669,30.2905626 27.1539055,29.998423 C26.8595483,29.2029487 27.0190719,28.2703491 27.6640411,27.6276715 C28.0977413,27.189462 28.6775113,26.9692485 29.2527721,26.9692485 C29.5179302,26.9692485 29.7785791,27.0254292 30.0347926,27.1220452 C30.3291499,27.2321889 30.6100534,27.3894949 30.8415031,27.6276715 L35.3201396,32.106308 C35.7426037,31.2253799 35.994308,30.2546366 35.994308,29.2164025 C35.9920903,25.6477454 33.2123285,22.7578398 29.7044353,22.5196632 Z" id="Shape"></path>
        </g>
    </g>
</svg>